<svg width="124" height="124" viewBox="0 0 124 124" fill="none" xmlns="http://www.w3.org/2000/svg">
<ellipse cx="28.4974" cy="28.7088" rx="28.4974" ry="28.7088" transform="matrix(0.999897 -0.0143708 0.0143466 0.999897 33.0762 33.0751)" stroke="#000011" stroke-width="2.7"/>
<ellipse cx="7.97583" cy="7.89915" rx="7.97583" ry="7.89915" transform="matrix(0.999999 0.00124116 -0.00126537 0.999999 54.3379 53.9619)" fill="#FFFBF2" stroke="#000011" stroke-width="2.7"/>
<path d="M18.3135 53.9222L4.53653 59.6048C2.86647 60.2937 2.86647 62.6591 4.53654 63.3486L18.3135 69.0364C18.8414 69.2543 19.4367 69.2393 19.9528 68.9949L28.0126 65.1788C28.2126 65.0841 28.4267 65.0228 28.6465 64.9974L41.6444 63.4952C44.0339 63.2191 44.0339 59.7492 41.6444 59.4721L28.6465 57.965C28.4267 57.9395 28.2126 57.8782 28.0126 57.7834L19.9528 53.9643C19.4367 53.7197 18.8414 53.7044 18.3135 53.9222Z" fill="#FFFBF2" stroke="#000011" stroke-width="2.7"/>
<path d="M36.4502 25.9101L22.6046 20.3405C20.9289 19.6664 19.2643 21.331 19.9611 22.9841L25.7182 36.6422C25.9411 37.1712 26.381 37.581 26.9277 37.7692L35.3528 40.6693C35.5645 40.7422 35.7626 40.8492 35.9391 40.986L46.3074 49.0254C48.2085 50.4994 50.6585 48.0494 49.1519 46.181L40.9347 35.9903C40.7949 35.8169 40.6849 35.6218 40.6093 35.4128L37.5998 27.0971C37.4046 26.5575 36.9865 26.1258 36.4502 25.9101Z" fill="#FFFBF2" stroke="#000011" stroke-width="2.7"/>
<path d="M69.6196 18.1154L63.8613 4.43666C63.1655 2.7837 60.8233 2.78369 60.1283 4.43666L54.377 18.1154C54.1517 18.6511 54.1676 19.2579 54.4204 19.7812L58.2639 27.7362C58.3617 27.9387 58.4252 28.1561 58.4516 28.3794L59.9932 41.4136C60.2751 43.7972 63.7346 43.7972 64.0153 41.4136L65.5502 28.3794C65.5765 28.1561 65.6398 27.9387 65.7376 27.7362L69.577 19.7812C69.8296 19.2579 69.8451 18.6511 69.6196 18.1154Z" fill="#FFFBF2" stroke="#000011" stroke-width="2.7"/>
<path d="M97.8806 35.6889L103.155 21.8387C103.793 20.1625 102.072 18.5574 100.421 19.2892L86.7784 25.3359C86.2497 25.5702 85.8468 26.0164 85.6705 26.5627L82.9551 34.9771C82.8869 35.1886 82.7838 35.3876 82.65 35.5658L74.7935 46.0382C73.3532 47.958 75.8871 50.3208 77.7355 48.7816L87.8181 40.3852C87.9898 40.2422 88.1841 40.1283 88.3932 40.0481L96.7107 36.8579C97.2507 36.6507 97.6762 36.2256 97.8806 35.6889Z" fill="#FFFBF2" stroke="#000011" stroke-width="2.7"/>
<path d="M105.518 69.3608L119.295 63.6799C120.965 62.9912 120.965 60.6258 119.295 59.9361L105.518 54.2465C104.991 54.0285 104.395 54.0435 103.879 54.2878L95.8194 58.1029C95.6194 58.1976 95.4053 58.2588 95.1854 58.2842L82.1876 59.7847C79.7981 60.0606 79.798 63.5305 82.1876 63.8078L95.1854 65.3166C95.4053 65.3421 95.6194 65.4035 95.8194 65.4983L103.879 69.3184C104.395 69.5631 104.991 69.5784 105.518 69.3608Z" fill="#FFFBF2" stroke="#000011" stroke-width="2.7"/>
<path d="M87.5377 97.4358L101.383 103.006C103.059 103.68 104.724 102.016 104.027 100.363L98.2692 86.7043C98.0462 86.1754 97.6064 85.7656 97.0597 85.5774L88.6343 82.6767C88.4226 82.6038 88.2246 82.4968 88.0481 82.36L77.6801 74.3206C75.7791 72.8465 73.329 75.2966 74.8357 77.165L83.0527 87.3553C83.1926 87.5288 83.3025 87.7239 83.3782 87.9328L86.3882 96.2489C86.5835 96.7884 87.0015 97.2201 87.5377 97.4358Z" fill="#FFFBF2" stroke="#000011" stroke-width="2.7"/>
<path d="M54.4383 105.38L60.1983 119.058C60.8944 120.711 63.2366 120.711 63.9314 119.058L69.6809 105.38C69.9061 104.844 69.8902 104.237 69.6373 103.714L65.7928 95.7588C65.6949 95.5563 65.6314 95.3389 65.605 95.1155L64.0617 82.0813C63.7795 79.6978 60.32 79.6978 60.0396 82.0813L58.5064 95.1155C58.4801 95.3389 58.4168 95.5563 58.3191 95.7588L54.4807 103.714C54.2282 104.237 54.2127 104.844 54.4383 105.38Z" fill="#FFFBF2" stroke="#000011" stroke-width="2.7"/>
<path d="M26.0133 87.4923L20.2598 101.15C19.5635 102.803 21.2276 104.467 22.9031 103.793L36.748 98.2271C37.2846 98.0114 37.7029 97.5795 37.8982 97.0395L40.9049 88.7254C40.9805 88.5164 41.0905 88.3211 41.2304 88.1476L49.4475 77.9555C50.9539 76.0871 48.5041 73.6373 46.6031 75.1111L36.2333 83.1505C36.0568 83.2874 35.8586 83.3945 35.6468 83.4673L27.2234 86.3648C26.6764 86.5529 26.2363 86.963 26.0133 87.4923Z" fill="#FFFBF2" stroke="#000011" stroke-width="2.7"/>
<path d="M36.9661 45.6662L27.2666 45.1786C25.3842 45.0839 24.3893 47.372 25.7518 48.6624L32.7723 55.3112C33.1461 55.6651 33.6422 55.8632 34.1593 55.8648L40.8669 55.8867C41.0689 55.8873 41.2694 55.918 41.462 55.9776L45.5979 57.2578C47.9252 57.9782 49.3314 54.7443 47.2043 53.5635L43.4241 51.465C43.2481 51.3673 43.0879 51.2439 42.9487 51.099L38.325 46.2845C37.9685 45.9133 37.4825 45.6921 36.9661 45.6662Z" fill="#FFFBF2" stroke="#000011" stroke-width="2.7"/>
<path d="M55.7678 31.9003L48.3552 24.6619C47.0667 23.4037 44.8995 24.3014 44.9047 26.0911L44.9348 36.3875C44.9365 36.9654 45.1873 37.5163 45.6237 37.9009L50.6145 42.2985C50.7834 42.4473 50.9264 42.6229 51.0377 42.8179L54.2046 48.3695C55.3955 50.457 58.5931 49.1325 57.9207 46.8302L56.1325 40.7076C56.0697 40.4924 56.0432 40.2687 56.0542 40.0453L56.3775 33.4465C56.4058 32.8695 56.1838 32.3066 55.7678 31.9003Z" fill="#FFFBF2" stroke="#000011" stroke-width="2.7"/>
<path d="M78.8173 35.7075L78.8132 25.4072C78.8125 23.6176 76.6467 22.7227 75.3625 23.9814L67.9713 31.2261C67.5556 31.6336 67.3349 32.1983 67.3651 32.7767L67.7102 39.3723C67.7219 39.5961 67.6961 39.8205 67.6338 40.0362L65.8613 46.1758C65.1961 48.4802 68.3938 49.8015 69.5786 47.7118L72.7354 42.1442C72.8463 41.9485 72.9891 41.7725 73.1578 41.6232L78.1316 37.2253C78.5678 36.8396 78.8175 36.2869 78.8173 35.7075Z" fill="#FFFBF2" stroke="#000011" stroke-width="2.7"/>
<path d="M91.5344 55.6614L98.7603 48.294C100.02 47.0096 99.0782 44.8437 97.2682 44.8622L86.8851 44.9688C86.3108 44.9747 85.7672 45.222 85.3891 45.6494L80.9789 50.6345C80.8324 50.8001 80.6594 50.9405 80.4667 51.0501L74.9846 54.1678C72.8965 55.3554 74.2795 58.536 76.5888 57.8571L82.6515 56.0747C82.8646 56.0121 83.0867 55.9848 83.3092 55.9938L90.0049 56.265C90.579 56.2883 91.1347 56.069 91.5344 55.6614Z" fill="#FFFBF2" stroke="#000011" stroke-width="2.7"/>
<path d="M86.8844 78.2132L97.2628 78.3462C99.073 78.3695 100.016 76.2012 98.7555 74.9134L91.5295 67.5302C91.1307 67.1227 90.5767 66.9027 90.0041 66.9244L83.3055 67.1787C83.0836 67.1871 82.862 67.1593 82.6495 67.0963L76.6037 65.3035C74.296 64.6192 72.9125 67.8009 74.9995 68.9929L80.467 72.1158C80.6591 72.2256 80.8318 72.366 80.978 72.5316L85.3924 77.5307C85.7697 77.958 86.3116 78.2059 86.8844 78.2132Z" fill="#FFFBF2" stroke="#000011" stroke-width="2.7"/>
<path d="M68.0694 91.1854L75.4827 98.424C76.7713 99.6822 78.9386 98.7845 78.9331 96.9947L78.9019 86.6984C78.9001 86.1206 78.6493 85.5698 78.2129 85.1853L73.2215 80.7873C73.0526 80.6385 72.9096 80.463 72.7983 80.268L69.6312 74.7171C68.4402 72.6296 65.2425 73.9541 65.9151 76.2564L67.7037 82.3782C67.7666 82.5933 67.7931 82.8171 67.7822 83.0403L67.4596 89.6394C67.4314 90.2164 67.6534 90.7792 68.0694 91.1854Z" fill="#FFFBF2" stroke="#000011" stroke-width="2.7"/>
<path d="M44.9033 88.0464L44.8998 98.347C44.8992 100.137 47.064 101.033 48.3491 99.7758L55.7457 92.5375C56.1618 92.1303 56.383 91.5658 56.3532 90.9872L56.013 84.3914C56.0015 84.1675 56.0274 83.9432 56.0899 83.7274L57.8671 77.5887C58.5341 75.2848 55.3375 73.9607 54.1511 76.0495L50.99 81.615C50.8789 81.8105 50.7359 81.9865 50.567 82.1356L45.5902 86.5291C45.1537 86.9144 44.9035 87.467 44.9033 88.0464Z" fill="#FFFBF2" stroke="#000011" stroke-width="2.7"/>
<path d="M34.0286 66.7786L26.8028 74.1454C25.5432 75.4296 26.4849 77.5955 28.295 77.5771L38.6781 77.4717C39.2526 77.4659 39.7962 77.2187 40.1743 76.7912L44.5843 71.8067C44.7308 71.6411 44.9038 71.5007 45.0965 71.3912L50.5793 68.2735C52.6675 67.0862 51.2845 63.9056 48.9751 64.5842L42.9116 66.3662C42.6985 66.4288 42.4763 66.4562 42.2538 66.4471L35.5583 66.1751C34.9842 66.1518 34.4284 66.371 34.0286 66.7786Z" fill="#FFFBF2" stroke="#000011" stroke-width="2.7"/>
</svg>
