<svg width="99" height="98" viewBox="0 0 99 98" fill="none" xmlns="http://www.w3.org/2000/svg">
<line x1="49.7812" y1="57.375" x2="49.7812" y2="91.125" stroke="#FFFBF2" stroke-width="4.21875"/>
<line x1="49.7812" y1="6.75" x2="49.7812" y2="40.5" stroke="#FFFBF2" stroke-width="4.21875"/>
<line x1="18.7584" y1="78.9044" x2="42.6233" y2="55.0396" stroke="#FFFBF2" stroke-width="4.21875"/>
<line x1="54.9772" y1="43.1662" x2="78.8421" y2="19.3013" stroke="#FFFBF2" stroke-width="4.21875"/>
<line x1="55.4916" y1="55.0397" x2="79.3564" y2="78.9046" stroke="#FFFBF2" stroke-width="4.21875"/>
<line x1="19.2103" y1="18.7584" x2="43.0752" y2="42.6233" stroke="#FFFBF2" stroke-width="4.21875"/>
<line x1="91.125" y1="48.0937" x2="57.375" y2="48.0938" stroke="#FFFBF2" stroke-width="4.21875"/>
<line x1="40.5" y1="48.0937" x2="6.74999" y2="48.0938" stroke="#FFFBF2" stroke-width="4.21875"/>
<circle cx="48.9375" cy="48.9375" r="8.4375" fill="#FFFBF2" stroke="#FFFBF2" stroke-width="4.21875"/>
<circle cx="48.9375" cy="48.9375" r="12.6562" stroke="#FFFBF2" stroke-width="4.21875"/>
<line x1="49.7812" y1="57.375" x2="49.7812" y2="91.125" stroke="#FFFBF2" stroke-width="4.21875"/>
<line x1="49.7812" y1="6.75" x2="49.7812" y2="40.5" stroke="#FFFBF2" stroke-width="4.21875"/>
<line x1="18.7584" y1="78.9044" x2="42.6233" y2="55.0396" stroke="#FFFBF2" stroke-width="4.21875"/>
<line x1="54.9772" y1="43.1662" x2="78.8421" y2="19.3013" stroke="#FFFBF2" stroke-width="4.21875"/>
<line x1="55.4916" y1="55.0397" x2="79.3564" y2="78.9046" stroke="#FFFBF2" stroke-width="4.21875"/>
<line x1="19.2103" y1="18.7584" x2="43.0752" y2="42.6233" stroke="#FFFBF2" stroke-width="4.21875"/>
<line x1="91.125" y1="48.0937" x2="57.375" y2="48.0938" stroke="#FFFBF2" stroke-width="4.21875"/>
<line x1="40.5" y1="48.0937" x2="6.74999" y2="48.0938" stroke="#FFFBF2" stroke-width="4.21875"/>
<circle cx="48.9375" cy="48.9375" r="8.4375" fill="#FFFBF2" stroke="#FFFBF2" stroke-width="4.21875"/>
<circle cx="48.9375" cy="48.9375" r="12.6562" stroke="#FFFBF2" stroke-width="4.21875"/>
<line x1="49.7812" y1="57.375" x2="49.7812" y2="91.125" stroke="#FFFBF2" stroke-width="4.21875"/>
<line x1="49.7812" y1="6.75" x2="49.7812" y2="40.5" stroke="#FFFBF2" stroke-width="4.21875"/>
<line x1="18.7584" y1="78.9044" x2="42.6233" y2="55.0396" stroke="#FFFBF2" stroke-width="4.21875"/>
<line x1="54.9772" y1="43.1662" x2="78.8421" y2="19.3013" stroke="#FFFBF2" stroke-width="4.21875"/>
<line x1="55.4916" y1="55.0397" x2="79.3564" y2="78.9046" stroke="#FFFBF2" stroke-width="4.21875"/>
<line x1="19.2103" y1="18.7584" x2="43.0752" y2="42.6233" stroke="#FFFBF2" stroke-width="4.21875"/>
<line x1="91.125" y1="48.0937" x2="57.375" y2="48.0938" stroke="#FFFBF2" stroke-width="4.21875"/>
<line x1="40.5" y1="48.0937" x2="6.74999" y2="48.0938" stroke="#FFFBF2" stroke-width="4.21875"/>
<circle cx="48.9375" cy="48.9375" r="8.4375" fill="#FFFBF2" stroke="#FFFBF2" stroke-width="4.21875"/>
<circle cx="48.9375" cy="48.9375" r="12.6562" stroke="#FFFBF2" stroke-width="4.21875"/>
<line x1="49.7812" y1="57.375" x2="49.7812" y2="91.125" stroke="#FFFBF2" stroke-width="4.21875"/>
<line x1="49.7812" y1="6.75" x2="49.7812" y2="40.5" stroke="#FFFBF2" stroke-width="4.21875"/>
<line x1="18.7584" y1="78.9044" x2="42.6233" y2="55.0396" stroke="#FFFBF2" stroke-width="4.21875"/>
<line x1="54.9772" y1="43.1662" x2="78.8421" y2="19.3013" stroke="#FFFBF2" stroke-width="4.21875"/>
<line x1="55.4916" y1="55.0397" x2="79.3564" y2="78.9046" stroke="#FFFBF2" stroke-width="4.21875"/>
<line x1="19.2103" y1="18.7584" x2="43.0752" y2="42.6233" stroke="#FFFBF2" stroke-width="4.21875"/>
<line x1="91.125" y1="48.0937" x2="57.375" y2="48.0938" stroke="#FFFBF2" stroke-width="4.21875"/>
<line x1="40.5" y1="48.0937" x2="6.74999" y2="48.0938" stroke="#FFFBF2" stroke-width="4.21875"/>
<circle cx="48.9375" cy="48.9375" r="8.4375" fill="#FFFBF2" stroke="#FFFBF2" stroke-width="4.21875"/>
<circle cx="48.9375" cy="48.9375" r="12.6562" stroke="#FFFBF2" stroke-width="4.21875"/>
<line x1="49.7812" y1="57.375" x2="49.7812" y2="91.125" stroke="#FFFBF2" stroke-width="4.21875"/>
<line x1="49.7812" y1="6.75" x2="49.7812" y2="40.5" stroke="#FFFBF2" stroke-width="4.21875"/>
<line x1="18.7584" y1="78.9044" x2="42.6233" y2="55.0396" stroke="#FFFBF2" stroke-width="4.21875"/>
<line x1="54.9772" y1="43.1662" x2="78.8421" y2="19.3013" stroke="#FFFBF2" stroke-width="4.21875"/>
<line x1="55.4916" y1="55.0397" x2="79.3564" y2="78.9046" stroke="#FFFBF2" stroke-width="4.21875"/>
<line x1="19.2103" y1="18.7584" x2="43.0752" y2="42.6233" stroke="#FFFBF2" stroke-width="4.21875"/>
<line x1="91.125" y1="48.0937" x2="57.375" y2="48.0938" stroke="#FFFBF2" stroke-width="4.21875"/>
<line x1="40.5" y1="48.0937" x2="6.74999" y2="48.0938" stroke="#FFFBF2" stroke-width="4.21875"/>
<circle cx="48.9375" cy="48.9375" r="8.4375" fill="#FFFBF2" stroke="#FFFBF2" stroke-width="4.21875"/>
<circle cx="48.9375" cy="48.9375" r="12.6562" stroke="#FFFBF2" stroke-width="4.21875"/>
<line x1="49.7812" y1="57.375" x2="49.7812" y2="91.125" stroke="#FFFBF2" stroke-width="4.21875"/>
<line x1="49.7812" y1="6.75" x2="49.7812" y2="40.5" stroke="#FFFBF2" stroke-width="4.21875"/>
<line x1="18.7584" y1="78.9044" x2="42.6233" y2="55.0396" stroke="#FFFBF2" stroke-width="4.21875"/>
<line x1="54.9772" y1="43.1662" x2="78.8421" y2="19.3013" stroke="#FFFBF2" stroke-width="4.21875"/>
<line x1="55.4916" y1="55.0397" x2="79.3564" y2="78.9046" stroke="#FFFBF2" stroke-width="4.21875"/>
<line x1="19.2103" y1="18.7584" x2="43.0752" y2="42.6233" stroke="#FFFBF2" stroke-width="4.21875"/>
<line x1="91.125" y1="48.0937" x2="57.375" y2="48.0938" stroke="#FFFBF2" stroke-width="4.21875"/>
<line x1="40.5" y1="48.0937" x2="6.74999" y2="48.0938" stroke="#FFFBF2" stroke-width="4.21875"/>
<circle cx="48.9375" cy="48.9375" r="8.4375" fill="#FFFBF2" stroke="#FFFBF2" stroke-width="4.21875"/>
<circle cx="48.9375" cy="48.9375" r="12.6562" stroke="#FFFBF2" stroke-width="4.21875"/>
<line x1="49.7812" y1="57.375" x2="49.7812" y2="91.125" stroke="#FFFBF2" stroke-width="4.21875"/>
<line x1="49.7812" y1="6.75" x2="49.7812" y2="40.5" stroke="#FFFBF2" stroke-width="4.21875"/>
<line x1="18.7584" y1="78.9044" x2="42.6233" y2="55.0396" stroke="#FFFBF2" stroke-width="4.21875"/>
<line x1="54.9772" y1="43.1662" x2="78.8421" y2="19.3013" stroke="#FFFBF2" stroke-width="4.21875"/>
<line x1="55.4916" y1="55.0397" x2="79.3564" y2="78.9046" stroke="#FFFBF2" stroke-width="4.21875"/>
<line x1="19.2103" y1="18.7584" x2="43.0752" y2="42.6233" stroke="#FFFBF2" stroke-width="4.21875"/>
<line x1="91.125" y1="48.0937" x2="57.375" y2="48.0938" stroke="#FFFBF2" stroke-width="4.21875"/>
<line x1="40.5" y1="48.0937" x2="6.74999" y2="48.0938" stroke="#FFFBF2" stroke-width="4.21875"/>
<circle cx="48.9375" cy="48.9375" r="8.4375" fill="#FFFBF2" stroke="#FFFBF2" stroke-width="4.21875"/>
<circle cx="48.9375" cy="48.9375" r="12.6562" stroke="#FFFBF2" stroke-width="4.21875"/>
<line x1="49.7812" y1="57.375" x2="49.7812" y2="91.125" stroke="#FFFBF2" stroke-width="4.21875"/>
<line x1="49.7812" y1="6.75" x2="49.7812" y2="40.5" stroke="#FFFBF2" stroke-width="4.21875"/>
<line x1="18.7584" y1="78.9044" x2="42.6233" y2="55.0396" stroke="#FFFBF2" stroke-width="4.21875"/>
<line x1="54.9772" y1="43.1662" x2="78.8421" y2="19.3013" stroke="#FFFBF2" stroke-width="4.21875"/>
<line x1="55.4916" y1="55.0397" x2="79.3564" y2="78.9046" stroke="#FFFBF2" stroke-width="4.21875"/>
<line x1="19.2103" y1="18.7584" x2="43.0752" y2="42.6233" stroke="#FFFBF2" stroke-width="4.21875"/>
<line x1="91.125" y1="48.0937" x2="57.375" y2="48.0938" stroke="#FFFBF2" stroke-width="4.21875"/>
<line x1="40.5" y1="48.0937" x2="6.74999" y2="48.0938" stroke="#FFFBF2" stroke-width="4.21875"/>
<circle cx="48.9375" cy="48.9375" r="8.4375" fill="#FFFBF2" stroke="#000011" stroke-width="4.21875"/>
<circle cx="79.4531" cy="79.4531" r="6.32812" fill="#FFFBF2"/>
<circle cx="18.7031" cy="79.4531" r="6.32812" fill="#FFFBF2"/>
<circle cx="50.2031" cy="90.7031" r="6.32812" fill="#FFFBF2"/>
<circle cx="91.8281" cy="47.9531" r="6.32812" fill="#FFFBF2"/>
<circle cx="79.4531" cy="18.7031" r="6.32812" fill="#FFFBF2"/>
<circle cx="6.32812" cy="47.9531" r="6.32812" fill="#FFFBF2"/>
<circle cx="48.9375" cy="48.9375" r="12.6562" stroke="#FFFBF2" stroke-width="4.21875"/>
<circle cx="18.7031" cy="17.5781" r="6.32812" fill="#FFFBF2"/>
<circle cx="50.2031" cy="6.32812" r="6.32812" fill="#FFFBF2"/>
</svg>
