<svg width="221" height="220" viewBox="0 0 221 220" fill="none" xmlns="http://www.w3.org/2000/svg">
<ellipse cx="50.6621" cy="51.0378" rx="50.6621" ry="51.0378" transform="matrix(0.999897 -0.0143708 0.0143466 0.999897 58.8008 58.8003)" fill="#FFFBF2"/>
<ellipse cx="14.1792" cy="14.0429" rx="14.1792" ry="14.0429" transform="matrix(0.999999 0.00124116 -0.00126537 0.999999 96.6055 95.9326)" fill="#000011"/>
<path d="M32.556 95.8621L8.06365 105.965C5.09466 107.189 5.09466 111.394 8.06365 112.62L32.556 122.732C33.4945 123.119 34.5528 123.092 35.4703 122.658L49.7988 115.874C50.1544 115.705 50.5351 115.597 50.9259 115.551L74.0332 112.881C78.2812 112.39 78.2812 106.221 74.0332 105.729L50.9259 103.049C50.5351 103.004 50.1544 102.895 49.7988 102.727L35.4703 95.937C34.5528 95.5022 33.4945 95.475 32.556 95.8621Z" fill="#000011"/>
<path d="M64.8104 46.0627L40.196 36.1612C37.2168 34.9628 34.2576 37.9221 35.4963 40.8609L45.7312 65.1419C46.1275 66.0823 46.9096 66.811 47.8815 67.1455L62.8594 72.3013C63.2358 72.4308 63.5879 72.6211 63.9016 72.8643L82.3343 87.1565C85.7139 89.7769 90.0695 85.4214 87.3911 82.0997L72.7828 63.9831C72.5342 63.6748 72.3387 63.3279 72.2043 62.9564L66.8541 48.1729C66.507 47.2136 65.7637 46.4462 64.8104 46.0627Z" fill="#000011"/>
<path d="M123.769 32.2051L113.533 7.88741C112.296 4.94878 108.132 4.94878 106.896 7.88741L96.6715 32.2051C96.271 33.1575 96.2992 34.2362 96.7487 35.1666L103.582 49.3087C103.756 49.6688 103.868 50.0552 103.915 50.4523L106.656 73.6242C107.157 77.8616 113.307 77.8616 113.806 73.6242L116.535 50.4523C116.582 50.0552 116.694 49.6688 116.868 49.3087L123.694 35.1666C124.143 34.2362 124.17 33.1575 123.769 32.2051Z" fill="#000011"/>
<path d="M174.02 63.4472L183.396 38.8247C184.531 35.8447 181.471 32.9912 178.536 34.2922L154.283 45.0419C153.343 45.4584 152.627 46.2516 152.313 47.2229L147.486 62.1817C147.364 62.5578 147.181 62.9115 146.943 63.2284L132.976 81.8459C130.416 85.2589 134.92 89.4595 138.206 86.723L156.131 71.7961C156.436 71.542 156.782 71.3395 157.153 71.1969L171.94 65.5254C172.9 65.1571 173.657 64.4013 174.02 63.4472Z" fill="#000011"/>
<path d="M187.6 123.308L212.092 113.209C215.061 111.985 215.061 107.78 212.092 106.553L187.6 96.4386C186.662 96.051 185.603 96.0777 184.686 96.512L170.357 103.294C170.002 103.463 169.621 103.572 169.23 103.617L146.123 106.284C141.875 106.775 141.875 112.943 146.123 113.436L169.23 116.119C169.621 116.164 170.002 116.273 170.357 116.442L184.686 123.233C185.603 123.668 186.662 123.695 187.6 123.308Z" fill="#000011"/>
<path d="M155.622 173.219L180.237 183.122C183.216 184.321 186.175 181.362 184.936 178.423L174.7 154.141C174.304 153.201 173.522 152.472 172.55 152.138L157.572 146.981C157.195 146.852 156.843 146.661 156.53 146.418L138.098 132.126C134.718 129.505 130.362 133.861 133.041 137.183L147.649 155.299C147.897 155.607 148.093 155.954 148.227 156.325L153.579 171.109C153.926 172.069 154.669 172.836 155.622 173.219Z" fill="#000011"/>
<path d="M96.7788 187.342L107.019 211.66C108.256 214.598 112.42 214.598 113.655 211.66L123.877 187.342C124.277 186.389 124.249 185.311 123.799 184.38L116.964 170.238C116.79 169.878 116.678 169.492 116.631 169.095L113.887 145.923C113.385 141.685 107.235 141.685 106.737 145.923L104.011 169.095C103.964 169.492 103.852 169.878 103.678 170.238L96.8542 184.38C96.4052 185.311 96.3778 186.389 96.7788 187.342Z" fill="#000011"/>
<path d="M46.2471 155.542L36.0187 179.822C34.7808 182.761 37.7392 185.719 40.7179 184.522L65.3312 174.626C66.285 174.243 67.0287 173.475 67.3758 172.515L72.7211 157.735C72.8555 157.363 73.051 157.016 73.2998 156.707L87.908 138.588C90.586 135.266 86.2308 130.911 82.8513 133.531L64.4161 147.824C64.1022 148.067 63.7499 148.257 63.3733 148.387L48.3985 153.538C47.426 153.872 46.6435 154.601 46.2471 155.542Z" fill="#000011"/>
<path d="M65.7249 81.1846L48.4813 80.3178C45.1348 80.1495 43.3661 84.2172 45.7883 86.5112L58.2693 98.3313C58.9338 98.9605 59.8157 99.3126 60.735 99.3156L72.6597 99.3544C73.0187 99.3556 73.3752 99.4101 73.7176 99.516L81.0704 101.792C85.2078 103.073 87.7076 97.3236 83.9261 95.2243L77.2058 91.4937C76.8929 91.32 76.608 91.1007 76.3606 90.843L68.1407 82.2838C67.5069 81.6239 66.6429 81.2308 65.7249 81.1846Z" fill="#000011"/>
<path d="M99.1501 56.7118L85.9721 43.8434C83.6815 41.6066 79.8287 43.2025 79.838 46.3842L79.8915 64.689C79.8945 65.7163 80.3403 66.6957 81.1161 67.3794L89.9887 75.1974C90.289 75.462 90.5432 75.7741 90.741 76.1208L96.3712 85.9903C98.4883 89.7015 104.173 87.3468 102.978 83.2538L99.7985 72.3691C99.6868 71.9866 99.6398 71.5888 99.6592 71.1918L100.234 59.4605C100.284 58.4347 99.8897 57.434 99.1501 56.7118Z" fill="#000011"/>
<path d="M140.12 63.4801L140.113 45.1684C140.111 41.9868 136.261 40.3959 133.978 42.6337L120.838 55.5131C120.099 56.2375 119.707 57.2414 119.761 58.2697L120.374 69.9952C120.395 70.3931 120.349 70.792 120.238 71.1755L117.087 82.0904C115.905 86.187 121.589 88.536 123.696 84.821L129.308 74.923C129.505 74.5752 129.759 74.2622 130.059 73.9969L138.901 66.1783C139.676 65.4927 140.12 64.51 140.12 63.4801Z" fill="#000011"/>
<path d="M162.725 98.9538L175.571 85.8561C177.81 83.5728 176.136 79.7222 172.918 79.7552L154.459 79.9447C153.438 79.9552 152.472 80.3948 151.8 81.1546L143.959 90.017C143.699 90.3114 143.391 90.561 143.049 90.7558L133.303 96.2984C129.591 98.4097 132.049 104.064 136.155 102.857L146.933 99.6885C147.312 99.5772 147.707 99.5286 148.102 99.5446L160.006 100.027C161.026 100.068 162.014 99.6783 162.725 98.9538Z" fill="#000011"/>
<path d="M154.465 139.046L172.916 139.282C176.134 139.324 177.81 135.469 175.569 133.18L162.723 120.054C162.014 119.329 161.029 118.938 160.011 118.977L148.103 119.429C147.708 119.444 147.314 119.394 146.936 119.282L136.188 116.095C132.086 114.879 129.626 120.535 133.336 122.654L143.056 128.206C143.398 128.401 143.705 128.651 143.965 128.945L151.813 137.832C152.483 138.592 153.447 139.033 154.465 139.046Z" fill="#000011"/>
<path d="M121.012 162.107L134.191 174.976C136.482 177.213 140.335 175.617 140.325 172.435L140.27 154.131C140.266 153.104 139.821 152.124 139.045 151.441L130.171 143.622C129.871 143.358 129.617 143.046 129.419 142.699L123.788 132.831C121.671 129.119 115.986 131.474 117.182 135.567L120.362 146.45C120.474 146.833 120.521 147.231 120.501 147.627L119.928 159.359C119.878 160.385 120.272 161.385 121.012 162.107Z" fill="#000011"/>
<path d="M79.8338 156.527L79.8275 174.839C79.8264 178.021 83.675 179.615 85.9596 177.379L99.1091 164.511C99.8488 163.787 100.242 162.784 100.189 161.755L99.5843 150.029C99.5638 149.631 99.61 149.232 99.721 148.849L102.88 137.936C104.066 133.84 98.3834 131.486 96.2743 135.199L90.6544 145.094C90.457 145.441 90.2029 145.754 89.9026 146.019L81.0548 153.83C80.2788 154.515 79.8341 155.497 79.8338 156.527Z" fill="#000011"/>
<path d="M60.4949 118.718L47.649 131.814C45.4096 134.097 47.0838 137.948 50.3017 137.915L68.7607 137.728C69.7819 137.717 70.7483 137.278 71.4206 136.518L79.2605 127.657C79.5209 127.362 79.8286 127.113 80.1711 126.918L89.9183 121.375C93.6307 119.265 91.1721 113.61 87.0665 114.817L76.2868 117.985C75.908 118.096 75.513 118.145 75.1175 118.128L63.2144 117.645C62.1936 117.603 61.2056 117.993 60.4949 118.718Z" fill="#000011"/>
</svg>
