<svg width="422" height="148" viewBox="0 0 422 148" fill="none" xmlns="http://www.w3.org/2000/svg">
<mask id="path-1-outside-1_0_1" maskUnits="userSpaceOnUse" x="167.002" y="42.946" width="255" height="58" fill="black">
<rect fill="white" x="167.002" y="42.946" width="255" height="58"/>
<path d="M187.018 80.946C187.018 83.634 186.186 85.6394 184.522 86.962C182.901 88.2847 180.533 88.946 177.418 88.946H169.162V84.146H178.058C179.21 84.146 180.085 83.9114 180.682 83.442C181.279 82.93 181.578 82.2047 181.578 81.266V77.874C181.578 75.954 180.661 74.994 178.826 74.994H177.738C174.751 74.994 172.511 74.354 171.018 73.074C169.567 71.7514 168.842 69.682 168.842 66.866V65.01C168.842 62.1514 169.653 60.1034 171.274 58.866C172.895 57.586 175.285 56.946 178.442 56.946H185.738V61.746H177.802C176.735 61.746 175.882 62.002 175.242 62.514C174.602 62.9834 174.282 63.6874 174.282 64.626V66.93C174.282 67.9114 174.559 68.6367 175.114 69.106C175.711 69.5754 176.458 69.81 177.354 69.81H178.25C181.109 69.81 183.285 70.514 184.778 71.922C186.271 73.2874 187.018 75.3354 187.018 78.066V80.946ZM205.924 88.946C202.17 88.946 199.418 88.1567 197.668 86.578C195.919 84.9567 195.044 82.3327 195.044 78.706V67.186C195.044 63.5167 195.834 60.8927 197.412 59.314C198.991 57.7354 201.615 56.946 205.284 56.946H207.012C210.042 56.946 212.324 57.7994 213.86 59.506C215.439 61.17 216.228 63.6234 216.228 66.866V75.186H200.484V79.986C200.484 81.3087 200.89 82.3327 201.7 83.058C202.511 83.7834 203.706 84.146 205.284 84.146H214.18V88.946H205.924ZM210.916 70.386V65.586C210.916 64.4767 210.554 63.5594 209.828 62.834C209.103 62.1087 208.186 61.746 207.076 61.746H204.644C203.108 61.746 202.02 62.1087 201.38 62.834C200.783 63.5167 200.484 64.5407 200.484 65.906V70.386H210.916ZM235.737 88.946C231.982 88.946 229.23 88.1567 227.481 86.578C225.732 84.9567 224.857 82.3327 224.857 78.706V67.186C224.857 63.5167 225.646 60.8927 227.225 59.314C228.804 57.7354 231.428 56.946 235.097 56.946H236.825C239.854 56.946 242.137 57.7994 243.673 59.506C245.252 61.17 246.041 63.6234 246.041 66.866V75.186H230.297V79.986C230.297 81.3087 230.702 82.3327 231.513 83.058C232.324 83.7834 233.518 84.146 235.097 84.146H243.993V88.946H235.737ZM240.729 70.386V65.586C240.729 64.4767 240.366 63.5594 239.641 62.834C238.916 62.1087 237.998 61.746 236.889 61.746H234.457C232.921 61.746 231.833 62.1087 231.193 62.834C230.596 63.5167 230.297 64.5407 230.297 65.906V70.386H240.729ZM272.013 87.474C270.605 88.4554 268.899 88.946 266.893 88.946H265.549C261.795 88.946 259.043 88.1567 257.293 86.578C255.544 84.9567 254.669 82.3327 254.669 78.706V67.186C254.669 63.602 255.544 60.9994 257.293 59.378C259.085 57.7567 261.837 56.946 265.549 56.946H271.693V44.146H277.133V88.946H272.013V87.474ZM267.533 84.146C268.941 84.146 269.987 83.7834 270.669 83.058C271.352 82.29 271.693 81.4794 271.693 80.626V61.746H264.909C263.331 61.746 262.136 62.1087 261.325 62.834C260.515 63.5594 260.109 64.5834 260.109 65.906V79.986C260.109 81.3087 260.515 82.3327 261.325 83.058C262.136 83.7834 263.331 84.146 264.909 84.146H267.533ZM304.268 80.946C304.268 83.634 303.436 85.6394 301.772 86.962C300.151 88.2847 297.783 88.946 294.668 88.946H286.412V84.146H295.308C296.46 84.146 297.335 83.9114 297.932 83.442C298.529 82.93 298.828 82.2047 298.828 81.266V77.874C298.828 75.954 297.911 74.994 296.076 74.994H294.988C292.001 74.994 289.761 74.354 288.268 73.074C286.817 71.7514 286.092 69.682 286.092 66.866V65.01C286.092 62.1514 286.903 60.1034 288.524 58.866C290.145 57.586 292.535 56.946 295.692 56.946H302.988V61.746H295.052C293.985 61.746 293.132 62.002 292.492 62.514C291.852 62.9834 291.532 63.6874 291.532 64.626V66.93C291.532 67.9114 291.809 68.6367 292.364 69.106C292.961 69.5754 293.708 69.81 294.604 69.81H295.5C298.359 69.81 300.535 70.514 302.028 71.922C303.521 73.2874 304.268 75.3354 304.268 78.066V80.946ZM312.934 56.946H318.054V58.482C319.377 57.458 321.084 56.946 323.174 56.946H324.198C327.953 56.946 330.705 57.7567 332.454 59.378C334.204 60.9567 335.078 63.5594 335.078 67.186V78.706C335.078 82.29 334.182 84.8927 332.39 86.514C330.641 88.1354 327.91 88.946 324.198 88.946H318.374V99.826H312.934V56.946ZM322.534 61.746C321.126 61.746 320.081 62.13 319.398 62.898C318.716 63.6234 318.374 64.4127 318.374 65.266V84.146H324.838C326.417 84.146 327.612 83.7834 328.422 83.058C329.233 82.3327 329.638 81.3087 329.638 79.986V65.906C329.638 64.5834 329.233 63.5594 328.422 62.834C327.612 62.1087 326.417 61.746 324.838 61.746H322.534ZM363.564 88.946C363.01 88.946 362.391 88.7754 361.708 88.434C361.068 88.0927 360.514 87.6234 360.044 87.026C359.063 88.306 357.762 88.946 356.14 88.946H351.724C348.482 88.946 346.114 88.306 344.62 87.026C343.17 85.7034 342.444 83.4634 342.444 80.306V79.026C342.444 72.4127 345.559 69.106 351.788 69.106H358.444V65.906C358.444 64.5834 358.039 63.5594 357.228 62.834C356.418 62.1087 355.223 61.746 353.644 61.746H345.004V56.946H353.004C356.716 56.946 359.447 57.7567 361.196 59.378C362.988 60.9994 363.884 63.602 363.884 67.186V82.546C363.884 83.186 364.119 83.6767 364.588 84.018C365.1 84.3167 365.932 84.466 367.084 84.466V88.946H363.564ZM355.5 84.146C356.78 84.146 357.591 83.8474 357.932 83.25C358.274 82.6527 358.444 81.8847 358.444 80.946V73.906H351.724C350.615 73.906 349.698 74.2687 348.972 74.994C348.247 75.7194 347.884 76.6367 347.884 77.746V80.946C347.884 82.0554 348.14 82.866 348.652 83.378C349.164 83.89 349.975 84.146 351.084 84.146H355.5ZM384.987 88.946C381.232 88.946 378.48 88.1567 376.731 86.578C374.982 84.9567 374.107 82.3327 374.107 78.706V67.186C374.107 63.602 374.982 60.9994 376.731 59.378C378.523 57.7567 381.275 56.946 384.987 56.946H391.963V61.746H384.347C382.768 61.746 381.574 62.1087 380.763 62.834C379.952 63.5594 379.547 64.5834 379.547 65.906V79.986C379.547 81.3087 379.952 82.3327 380.763 83.058C381.574 83.7834 382.768 84.146 384.347 84.146H391.963V88.946H384.987ZM409.924 88.946C406.17 88.946 403.418 88.1567 401.668 86.578C399.919 84.9567 399.044 82.3327 399.044 78.706V67.186C399.044 63.5167 399.834 60.8927 401.412 59.314C402.991 57.7354 405.615 56.946 409.284 56.946H411.012C414.042 56.946 416.324 57.7994 417.86 59.506C419.439 61.17 420.228 63.6234 420.228 66.866V75.186H404.484V79.986C404.484 81.3087 404.89 82.3327 405.7 83.058C406.511 83.7834 407.706 84.146 409.284 84.146H418.18V88.946H409.924ZM414.916 70.386V65.586C414.916 64.4767 414.554 63.5594 413.828 62.834C413.103 62.1087 412.186 61.746 411.076 61.746H408.644C407.108 61.746 406.02 62.1087 405.38 62.834C404.783 63.5167 404.484 64.5407 404.484 65.906V70.386H414.916Z"/>
</mask>
<path d="M187.018 80.946C187.018 83.634 186.186 85.6394 184.522 86.962C182.901 88.2847 180.533 88.946 177.418 88.946H169.162V84.146H178.058C179.21 84.146 180.085 83.9114 180.682 83.442C181.279 82.93 181.578 82.2047 181.578 81.266V77.874C181.578 75.954 180.661 74.994 178.826 74.994H177.738C174.751 74.994 172.511 74.354 171.018 73.074C169.567 71.7514 168.842 69.682 168.842 66.866V65.01C168.842 62.1514 169.653 60.1034 171.274 58.866C172.895 57.586 175.285 56.946 178.442 56.946H185.738V61.746H177.802C176.735 61.746 175.882 62.002 175.242 62.514C174.602 62.9834 174.282 63.6874 174.282 64.626V66.93C174.282 67.9114 174.559 68.6367 175.114 69.106C175.711 69.5754 176.458 69.81 177.354 69.81H178.25C181.109 69.81 183.285 70.514 184.778 71.922C186.271 73.2874 187.018 75.3354 187.018 78.066V80.946ZM205.924 88.946C202.17 88.946 199.418 88.1567 197.668 86.578C195.919 84.9567 195.044 82.3327 195.044 78.706V67.186C195.044 63.5167 195.834 60.8927 197.412 59.314C198.991 57.7354 201.615 56.946 205.284 56.946H207.012C210.042 56.946 212.324 57.7994 213.86 59.506C215.439 61.17 216.228 63.6234 216.228 66.866V75.186H200.484V79.986C200.484 81.3087 200.89 82.3327 201.7 83.058C202.511 83.7834 203.706 84.146 205.284 84.146H214.18V88.946H205.924ZM210.916 70.386V65.586C210.916 64.4767 210.554 63.5594 209.828 62.834C209.103 62.1087 208.186 61.746 207.076 61.746H204.644C203.108 61.746 202.02 62.1087 201.38 62.834C200.783 63.5167 200.484 64.5407 200.484 65.906V70.386H210.916ZM235.737 88.946C231.982 88.946 229.23 88.1567 227.481 86.578C225.732 84.9567 224.857 82.3327 224.857 78.706V67.186C224.857 63.5167 225.646 60.8927 227.225 59.314C228.804 57.7354 231.428 56.946 235.097 56.946H236.825C239.854 56.946 242.137 57.7994 243.673 59.506C245.252 61.17 246.041 63.6234 246.041 66.866V75.186H230.297V79.986C230.297 81.3087 230.702 82.3327 231.513 83.058C232.324 83.7834 233.518 84.146 235.097 84.146H243.993V88.946H235.737ZM240.729 70.386V65.586C240.729 64.4767 240.366 63.5594 239.641 62.834C238.916 62.1087 237.998 61.746 236.889 61.746H234.457C232.921 61.746 231.833 62.1087 231.193 62.834C230.596 63.5167 230.297 64.5407 230.297 65.906V70.386H240.729ZM272.013 87.474C270.605 88.4554 268.899 88.946 266.893 88.946H265.549C261.795 88.946 259.043 88.1567 257.293 86.578C255.544 84.9567 254.669 82.3327 254.669 78.706V67.186C254.669 63.602 255.544 60.9994 257.293 59.378C259.085 57.7567 261.837 56.946 265.549 56.946H271.693V44.146H277.133V88.946H272.013V87.474ZM267.533 84.146C268.941 84.146 269.987 83.7834 270.669 83.058C271.352 82.29 271.693 81.4794 271.693 80.626V61.746H264.909C263.331 61.746 262.136 62.1087 261.325 62.834C260.515 63.5594 260.109 64.5834 260.109 65.906V79.986C260.109 81.3087 260.515 82.3327 261.325 83.058C262.136 83.7834 263.331 84.146 264.909 84.146H267.533ZM304.268 80.946C304.268 83.634 303.436 85.6394 301.772 86.962C300.151 88.2847 297.783 88.946 294.668 88.946H286.412V84.146H295.308C296.46 84.146 297.335 83.9114 297.932 83.442C298.529 82.93 298.828 82.2047 298.828 81.266V77.874C298.828 75.954 297.911 74.994 296.076 74.994H294.988C292.001 74.994 289.761 74.354 288.268 73.074C286.817 71.7514 286.092 69.682 286.092 66.866V65.01C286.092 62.1514 286.903 60.1034 288.524 58.866C290.145 57.586 292.535 56.946 295.692 56.946H302.988V61.746H295.052C293.985 61.746 293.132 62.002 292.492 62.514C291.852 62.9834 291.532 63.6874 291.532 64.626V66.93C291.532 67.9114 291.809 68.6367 292.364 69.106C292.961 69.5754 293.708 69.81 294.604 69.81H295.5C298.359 69.81 300.535 70.514 302.028 71.922C303.521 73.2874 304.268 75.3354 304.268 78.066V80.946ZM312.934 56.946H318.054V58.482C319.377 57.458 321.084 56.946 323.174 56.946H324.198C327.953 56.946 330.705 57.7567 332.454 59.378C334.204 60.9567 335.078 63.5594 335.078 67.186V78.706C335.078 82.29 334.182 84.8927 332.39 86.514C330.641 88.1354 327.91 88.946 324.198 88.946H318.374V99.826H312.934V56.946ZM322.534 61.746C321.126 61.746 320.081 62.13 319.398 62.898C318.716 63.6234 318.374 64.4127 318.374 65.266V84.146H324.838C326.417 84.146 327.612 83.7834 328.422 83.058C329.233 82.3327 329.638 81.3087 329.638 79.986V65.906C329.638 64.5834 329.233 63.5594 328.422 62.834C327.612 62.1087 326.417 61.746 324.838 61.746H322.534ZM363.564 88.946C363.01 88.946 362.391 88.7754 361.708 88.434C361.068 88.0927 360.514 87.6234 360.044 87.026C359.063 88.306 357.762 88.946 356.14 88.946H351.724C348.482 88.946 346.114 88.306 344.62 87.026C343.17 85.7034 342.444 83.4634 342.444 80.306V79.026C342.444 72.4127 345.559 69.106 351.788 69.106H358.444V65.906C358.444 64.5834 358.039 63.5594 357.228 62.834C356.418 62.1087 355.223 61.746 353.644 61.746H345.004V56.946H353.004C356.716 56.946 359.447 57.7567 361.196 59.378C362.988 60.9994 363.884 63.602 363.884 67.186V82.546C363.884 83.186 364.119 83.6767 364.588 84.018C365.1 84.3167 365.932 84.466 367.084 84.466V88.946H363.564ZM355.5 84.146C356.78 84.146 357.591 83.8474 357.932 83.25C358.274 82.6527 358.444 81.8847 358.444 80.946V73.906H351.724C350.615 73.906 349.698 74.2687 348.972 74.994C348.247 75.7194 347.884 76.6367 347.884 77.746V80.946C347.884 82.0554 348.14 82.866 348.652 83.378C349.164 83.89 349.975 84.146 351.084 84.146H355.5ZM384.987 88.946C381.232 88.946 378.48 88.1567 376.731 86.578C374.982 84.9567 374.107 82.3327 374.107 78.706V67.186C374.107 63.602 374.982 60.9994 376.731 59.378C378.523 57.7567 381.275 56.946 384.987 56.946H391.963V61.746H384.347C382.768 61.746 381.574 62.1087 380.763 62.834C379.952 63.5594 379.547 64.5834 379.547 65.906V79.986C379.547 81.3087 379.952 82.3327 380.763 83.058C381.574 83.7834 382.768 84.146 384.347 84.146H391.963V88.946H384.987ZM409.924 88.946C406.17 88.946 403.418 88.1567 401.668 86.578C399.919 84.9567 399.044 82.3327 399.044 78.706V67.186C399.044 63.5167 399.834 60.8927 401.412 59.314C402.991 57.7354 405.615 56.946 409.284 56.946H411.012C414.042 56.946 416.324 57.7994 417.86 59.506C419.439 61.17 420.228 63.6234 420.228 66.866V75.186H404.484V79.986C404.484 81.3087 404.89 82.3327 405.7 83.058C406.511 83.7834 407.706 84.146 409.284 84.146H418.18V88.946H409.924ZM414.916 70.386V65.586C414.916 64.4767 414.554 63.5594 413.828 62.834C413.103 62.1087 412.186 61.746 411.076 61.746H408.644C407.108 61.746 406.02 62.1087 405.38 62.834C404.783 63.5167 404.484 64.5407 404.484 65.906V70.386H414.916Z" fill="#FFFBF2"/>
<path d="M184.522 86.962L183.9 86.1792L183.89 86.1872L184.522 86.962ZM169.162 88.946H168.162V89.946H169.162V88.946ZM169.162 84.146V83.146H168.162V84.146H169.162ZM180.682 83.442L181.3 84.2284L181.317 84.2152L181.333 84.2013L180.682 83.442ZM171.018 73.074L170.344 73.813L170.356 73.8233L170.367 73.8333L171.018 73.074ZM171.274 58.866L171.881 59.661L171.887 59.656L171.894 59.6509L171.274 58.866ZM185.738 56.946H186.738V55.946H185.738V56.946ZM185.738 61.746V62.746H186.738V61.746H185.738ZM175.242 62.514L175.833 63.3204L175.85 63.308L175.867 63.2949L175.242 62.514ZM175.114 69.106L174.468 69.8694L174.482 69.8812L174.496 69.8924L175.114 69.106ZM184.778 71.922L184.092 72.6496L184.098 72.6549L184.103 72.6601L184.778 71.922ZM186.018 80.946C186.018 83.4174 185.264 85.0951 183.9 86.1792L185.144 87.7449C187.108 86.1837 188.018 83.8507 188.018 80.946H186.018ZM183.89 86.1872C182.516 87.3079 180.411 87.946 177.418 87.946V89.946C180.655 89.946 183.285 89.2615 185.154 87.7369L183.89 86.1872ZM177.418 87.946H169.162V89.946H177.418V87.946ZM170.162 88.946V84.146H168.162V88.946H170.162ZM169.162 85.146H178.058V83.146H169.162V85.146ZM178.058 85.146C179.324 85.146 180.456 84.8915 181.3 84.2284L180.064 82.6557C179.713 82.9312 179.096 83.146 178.058 83.146V85.146ZM181.333 84.2013C182.195 83.4624 182.578 82.4346 182.578 81.266H180.578C180.578 81.9748 180.364 82.3977 180.031 82.6828L181.333 84.2013ZM182.578 81.266V77.874H180.578V81.266H182.578ZM182.578 77.874C182.578 76.771 182.315 75.7581 181.613 75.0232C180.903 74.2798 179.909 73.994 178.826 73.994V75.994C179.577 75.994 179.96 76.1883 180.167 76.4049C180.382 76.63 180.578 77.0571 180.578 77.874H182.578ZM178.826 73.994H177.738V75.994H178.826V73.994ZM177.738 73.994C174.871 73.994 172.907 73.3764 171.669 72.3148L170.367 73.8333C172.115 75.3317 174.632 75.994 177.738 75.994V73.994ZM171.692 72.3351C170.526 71.2722 169.842 69.5255 169.842 66.866H167.842C167.842 69.8386 168.609 72.2306 170.344 73.813L171.692 72.3351ZM169.842 66.866V65.01H167.842V66.866H169.842ZM169.842 65.01C169.842 62.3303 170.597 60.641 171.881 59.661L170.667 58.0711C168.709 59.5658 167.842 61.9725 167.842 65.01H169.842ZM171.894 59.6509C173.267 58.5669 175.397 57.946 178.442 57.946V55.946C175.173 55.946 172.524 56.6051 170.654 58.0812L171.894 59.6509ZM178.442 57.946H185.738V55.946H178.442V57.946ZM184.738 56.946V61.746H186.738V56.946H184.738ZM185.738 60.746H177.802V62.746H185.738V60.746ZM177.802 60.746C176.577 60.746 175.482 61.0415 174.617 61.7332L175.867 63.2949C176.282 62.9626 176.893 62.746 177.802 62.746V60.746ZM174.651 61.7076C173.705 62.4012 173.282 63.4348 173.282 64.626H175.282C175.282 63.9399 175.499 63.5655 175.833 63.3204L174.651 61.7076ZM173.282 64.626V66.93H175.282V64.626H173.282ZM173.282 66.93C173.282 68.0965 173.617 69.1495 174.468 69.8694L175.76 68.3427C175.501 68.124 175.282 67.7262 175.282 66.93H173.282ZM174.496 69.8924C175.3 70.5239 176.276 70.81 177.354 70.81V68.81C176.64 68.81 176.123 68.6268 175.732 68.3197L174.496 69.8924ZM177.354 70.81H178.25V68.81H177.354V70.81ZM178.25 70.81C180.955 70.81 182.847 71.4754 184.092 72.6496L185.464 71.1945C183.723 69.5527 181.263 68.81 178.25 68.81V70.81ZM184.103 72.6601C185.324 73.7764 186.018 75.5137 186.018 78.066H188.018C188.018 75.157 187.218 72.7983 185.453 71.184L184.103 72.6601ZM186.018 78.066V80.946H188.018V78.066H186.018ZM197.668 86.578L196.989 87.3115L196.998 87.3204L197.668 86.578ZM197.412 59.314L196.705 58.6069L197.412 59.314ZM213.86 59.506L213.117 60.175L213.126 60.1848L213.135 60.1943L213.86 59.506ZM216.228 75.186V76.186H217.228V75.186H216.228ZM200.484 75.186V74.186H199.484V75.186H200.484ZM201.7 83.058L202.367 82.3128V82.3128L201.7 83.058ZM214.18 84.146H215.18V83.146H214.18V84.146ZM214.18 88.946V89.946H215.18V88.946H214.18ZM210.916 70.386V71.386H211.916V70.386H210.916ZM209.828 62.834L210.536 62.1269L209.828 62.834ZM201.38 62.834L200.631 62.1724L200.628 62.1755L201.38 62.834ZM200.484 70.386H199.484V71.386H200.484V70.386ZM205.924 87.946C202.278 87.946 199.822 87.1742 198.338 85.8357L196.998 87.3204C199.014 89.1392 202.062 89.946 205.924 89.946V87.946ZM198.348 85.8446C196.889 84.4922 196.044 82.1984 196.044 78.706H194.044C194.044 82.467 194.949 85.4212 196.989 87.3115L198.348 85.8446ZM196.044 78.706V67.186H194.044V78.706H196.044ZM196.044 67.186C196.044 63.6196 196.818 61.3223 198.12 60.0212L196.705 58.6069C194.849 60.4631 194.044 63.4139 194.044 67.186H196.044ZM198.12 60.0212C199.421 58.72 201.718 57.946 205.284 57.946V55.946C201.512 55.946 198.562 56.7508 196.705 58.6069L198.12 60.0212ZM205.284 57.946H207.012V55.946H205.284V57.946ZM207.012 57.946C209.854 57.946 211.826 58.7409 213.117 60.175L214.604 58.8371C212.822 56.8579 210.23 55.946 207.012 55.946V57.946ZM213.135 60.1943C214.476 61.6075 215.228 63.7732 215.228 66.866H217.228C217.228 63.4736 216.402 60.7325 214.586 58.8178L213.135 60.1943ZM215.228 66.866V75.186H217.228V66.866H215.228ZM216.228 74.186H200.484V76.186H216.228V74.186ZM199.484 75.186V79.986H201.484V75.186H199.484ZM199.484 79.986C199.484 81.5265 199.966 82.8479 201.034 83.8033L202.367 82.3128C201.814 81.8175 201.484 81.0909 201.484 79.986H199.484ZM201.034 83.8033C202.095 84.7533 203.569 85.146 205.284 85.146V83.146C203.842 83.146 202.927 82.8134 202.367 82.3128L201.034 83.8033ZM205.284 85.146H214.18V83.146H205.284V85.146ZM213.18 84.146V88.946H215.18V84.146H213.18ZM214.18 87.946H205.924V89.946H214.18V87.946ZM211.916 70.386V65.586H209.916V70.386H211.916ZM211.916 65.586C211.916 64.2353 211.465 63.056 210.536 62.1269L209.121 63.5412C209.643 64.0627 209.916 64.7181 209.916 65.586H211.916ZM210.536 62.1269C209.606 61.1979 208.427 60.746 207.076 60.746V62.746C207.944 62.746 208.6 63.0196 209.121 63.5412L210.536 62.1269ZM207.076 60.746H204.644V62.746H207.076V60.746ZM204.644 60.746C202.988 60.746 201.548 61.1328 200.631 62.1724L202.13 63.4957C202.493 63.0847 203.229 62.746 204.644 62.746V60.746ZM200.628 62.1755C199.807 63.1133 199.484 64.4169 199.484 65.906H201.484C201.484 64.6645 201.759 63.9201 202.133 63.4925L200.628 62.1755ZM199.484 65.906V70.386H201.484V65.906H199.484ZM200.484 71.386H210.916V69.386H200.484V71.386ZM227.481 86.578L226.801 87.3115L226.811 87.3204L227.481 86.578ZM227.225 59.314L226.518 58.6069H226.518L227.225 59.314ZM243.673 59.506L242.93 60.175L242.938 60.1848L242.947 60.1943L243.673 59.506ZM246.041 75.186V76.186H247.041V75.186H246.041ZM230.297 75.186V74.186H229.297V75.186H230.297ZM231.513 83.058L232.18 82.3128V82.3128L231.513 83.058ZM243.993 84.146H244.993V83.146H243.993V84.146ZM243.993 88.946V89.946H244.993V88.946H243.993ZM240.729 70.386V71.386H241.729V70.386H240.729ZM239.641 62.834L240.348 62.1269L239.641 62.834ZM231.193 62.834L230.443 62.1724L230.44 62.1755L231.193 62.834ZM230.297 70.386H229.297V71.386H230.297V70.386ZM235.737 87.946C232.09 87.946 229.634 87.1742 228.151 85.8357L226.811 87.3204C228.826 89.1392 231.874 89.946 235.737 89.946V87.946ZM228.161 85.8446C226.702 84.4922 225.857 82.1984 225.857 78.706H223.857C223.857 82.467 224.762 85.4212 226.801 87.3115L228.161 85.8446ZM225.857 78.706V67.186H223.857V78.706H225.857ZM225.857 67.186C225.857 63.6196 226.631 61.3223 227.932 60.0212L226.518 58.6069C224.662 60.4631 223.857 63.4139 223.857 67.186H225.857ZM227.932 60.0212C229.233 58.72 231.53 57.946 235.097 57.946V55.946C231.325 55.946 228.374 56.7508 226.518 58.6069L227.932 60.0212ZM235.097 57.946H236.825V55.946H235.097V57.946ZM236.825 57.946C239.666 57.946 241.639 58.7409 242.93 60.175L244.416 58.8371C242.635 56.8579 240.042 55.946 236.825 55.946V57.946ZM242.947 60.1943C244.288 61.6075 245.041 63.7732 245.041 66.866H247.041C247.041 63.4736 246.215 60.7325 244.398 58.8178L242.947 60.1943ZM245.041 66.866V75.186H247.041V66.866H245.041ZM246.041 74.186H230.297V76.186H246.041V74.186ZM229.297 75.186V79.986H231.297V75.186H229.297ZM229.297 79.986C229.297 81.5265 229.778 82.8479 230.846 83.8033L232.18 82.3128C231.626 81.8175 231.297 81.0909 231.297 79.986H229.297ZM230.846 83.8033C231.908 84.7533 233.382 85.146 235.097 85.146V83.146C233.655 83.146 232.739 82.8134 232.18 82.3128L230.846 83.8033ZM235.097 85.146H243.993V83.146H235.097V85.146ZM242.993 84.146V88.946H244.993V84.146H242.993ZM243.993 87.946H235.737V89.946H243.993V87.946ZM241.729 70.386V65.586H239.729V70.386H241.729ZM241.729 65.586C241.729 64.2353 241.277 63.056 240.348 62.1269L238.934 63.5412C239.455 64.0627 239.729 64.7181 239.729 65.586H241.729ZM240.348 62.1269C239.419 61.1979 238.24 60.746 236.889 60.746V62.746C237.757 62.746 238.412 63.0196 238.934 63.5412L240.348 62.1269ZM236.889 60.746H234.457V62.746H236.889V60.746ZM234.457 60.746C232.8 60.746 231.36 61.1328 230.443 62.1724L231.943 63.4957C232.305 63.0847 233.042 62.746 234.457 62.746V60.746ZM230.44 62.1755C229.62 63.1133 229.297 64.4169 229.297 65.906H231.297C231.297 64.6645 231.571 63.9201 231.946 63.4925L230.44 62.1755ZM229.297 65.906V70.386H231.297V65.906H229.297ZM230.297 71.386H240.729V69.386H230.297V71.386ZM272.013 87.474H273.013V85.5582L271.442 86.6536L272.013 87.474ZM257.293 86.578L256.614 87.3115L256.623 87.3204L257.293 86.578ZM257.293 59.378L256.622 58.6365L256.614 58.6446L257.293 59.378ZM271.693 56.946V57.946H272.693V56.946H271.693ZM271.693 44.146V43.146H270.693V44.146H271.693ZM277.133 44.146H278.133V43.146H277.133V44.146ZM277.133 88.946V89.946H278.133V88.946H277.133ZM272.013 88.946H271.013V89.946H272.013V88.946ZM270.669 83.058L271.398 83.7434L271.407 83.733L271.417 83.7224L270.669 83.058ZM271.693 61.746H272.693V60.746H271.693V61.746ZM261.325 62.834L261.992 63.5793L261.325 62.834ZM261.325 83.058L261.992 82.3128V82.3128L261.325 83.058ZM271.442 86.6536C270.228 87.4993 268.73 87.946 266.893 87.946V89.946C269.068 89.946 270.983 89.4114 272.585 88.2944L271.442 86.6536ZM266.893 87.946H265.549V89.946H266.893V87.946ZM265.549 87.946C261.903 87.946 259.447 87.1742 257.963 85.8357L256.623 87.3204C258.639 89.1392 261.687 89.946 265.549 89.946V87.946ZM257.973 85.8446C256.514 84.4922 255.669 82.1984 255.669 78.706H253.669C253.669 82.467 254.574 85.4212 256.614 87.3115L257.973 85.8446ZM255.669 78.706V67.186H253.669V78.706H255.669ZM255.669 67.186C255.669 63.7406 256.512 61.4658 257.973 60.1115L256.614 58.6446C254.576 60.5329 253.669 63.4635 253.669 67.186H255.669ZM257.964 60.1196C259.496 58.7342 261.957 57.946 265.549 57.946V55.946C261.718 55.946 258.675 56.7792 256.623 58.6365L257.964 60.1196ZM265.549 57.946H271.693V55.946H265.549V57.946ZM272.693 56.946V44.146H270.693V56.946H272.693ZM271.693 45.146H277.133V43.146H271.693V45.146ZM276.133 44.146V88.946H278.133V44.146H276.133ZM277.133 87.946H272.013V89.946H277.133V87.946ZM273.013 88.946V87.474H271.013V88.946H273.013ZM267.533 85.146C269.101 85.146 270.459 84.7409 271.398 83.7434L269.941 82.3727C269.515 82.8258 268.782 83.146 267.533 83.146V85.146ZM271.417 83.7224C272.227 82.8106 272.693 81.7722 272.693 80.626H270.693C270.693 81.1866 270.477 81.7695 269.922 82.3937L271.417 83.7224ZM272.693 80.626V61.746H270.693V80.626H272.693ZM271.693 60.746H264.909V62.746H271.693V60.746ZM264.909 60.746C263.194 60.746 261.72 61.1388 260.659 62.0888L261.992 63.5793C262.552 63.0786 263.467 62.746 264.909 62.746V60.746ZM260.659 62.0888C259.591 63.0442 259.109 64.3655 259.109 65.906H261.109C261.109 64.8012 261.439 64.0746 261.992 63.5793L260.659 62.0888ZM259.109 65.906V79.986H261.109V65.906H259.109ZM259.109 79.986C259.109 81.5265 259.591 82.8479 260.659 83.8033L261.992 82.3128C261.439 81.8175 261.109 81.0909 261.109 79.986H259.109ZM260.659 83.8033C261.72 84.7533 263.194 85.146 264.909 85.146V83.146C263.467 83.146 262.552 82.8134 261.992 82.3128L260.659 83.8033ZM264.909 85.146H267.533V83.146H264.909V85.146ZM301.772 86.962L301.15 86.1792L301.14 86.1872L301.772 86.962ZM286.412 88.946H285.412V89.946H286.412V88.946ZM286.412 84.146V83.146H285.412V84.146H286.412ZM297.932 83.442L298.55 84.2284L298.567 84.2152L298.583 84.2013L297.932 83.442ZM288.268 73.074L287.594 73.813L287.606 73.8233L287.617 73.8333L288.268 73.074ZM288.524 58.866L289.131 59.661L289.137 59.656L289.144 59.6509L288.524 58.866ZM302.988 56.946H303.988V55.946H302.988V56.946ZM302.988 61.746V62.746H303.988V61.746H302.988ZM292.492 62.514L293.083 63.3204L293.1 63.308L293.117 63.2949L292.492 62.514ZM292.364 69.106L291.718 69.8694L291.732 69.8812L291.746 69.8924L292.364 69.106ZM302.028 71.922L301.342 72.6496L301.348 72.6549L301.353 72.6601L302.028 71.922ZM303.268 80.946C303.268 83.4174 302.514 85.0951 301.15 86.1792L302.394 87.7449C304.358 86.1837 305.268 83.8507 305.268 80.946H303.268ZM301.14 86.1872C299.766 87.3079 297.661 87.946 294.668 87.946V89.946C297.905 89.946 300.535 89.2615 302.404 87.7369L301.14 86.1872ZM294.668 87.946H286.412V89.946H294.668V87.946ZM287.412 88.946V84.146H285.412V88.946H287.412ZM286.412 85.146H295.308V83.146H286.412V85.146ZM295.308 85.146C296.574 85.146 297.706 84.8915 298.55 84.2284L297.314 82.6557C296.963 82.9312 296.346 83.146 295.308 83.146V85.146ZM298.583 84.2013C299.445 83.4624 299.828 82.4346 299.828 81.266H297.828C297.828 81.9748 297.614 82.3977 297.281 82.6828L298.583 84.2013ZM299.828 81.266V77.874H297.828V81.266H299.828ZM299.828 77.874C299.828 76.771 299.565 75.7581 298.863 75.0232C298.153 74.2798 297.159 73.994 296.076 73.994V75.994C296.827 75.994 297.21 76.1883 297.417 76.4049C297.632 76.63 297.828 77.0571 297.828 77.874H299.828ZM296.076 73.994H294.988V75.994H296.076V73.994ZM294.988 73.994C292.121 73.994 290.157 73.3764 288.919 72.3148L287.617 73.8333C289.365 75.3317 291.882 75.994 294.988 75.994V73.994ZM288.942 72.3351C287.776 71.2722 287.092 69.5255 287.092 66.866H285.092C285.092 69.8386 285.859 72.2306 287.594 73.813L288.942 72.3351ZM287.092 66.866V65.01H285.092V66.866H287.092ZM287.092 65.01C287.092 62.3303 287.847 60.641 289.131 59.661L287.917 58.0711C285.959 59.5658 285.092 61.9725 285.092 65.01H287.092ZM289.144 59.6509C290.517 58.5669 292.647 57.946 295.692 57.946V55.946C292.423 55.946 289.774 56.6051 287.904 58.0812L289.144 59.6509ZM295.692 57.946H302.988V55.946H295.692V57.946ZM301.988 56.946V61.746H303.988V56.946H301.988ZM302.988 60.746H295.052V62.746H302.988V60.746ZM295.052 60.746C293.827 60.746 292.732 61.0415 291.867 61.7332L293.117 63.2949C293.532 62.9626 294.143 62.746 295.052 62.746V60.746ZM291.901 61.7076C290.955 62.4012 290.532 63.4348 290.532 64.626H292.532C292.532 63.9399 292.749 63.5655 293.083 63.3204L291.901 61.7076ZM290.532 64.626V66.93H292.532V64.626H290.532ZM290.532 66.93C290.532 68.0965 290.867 69.1495 291.718 69.8694L293.01 68.3427C292.751 68.124 292.532 67.7262 292.532 66.93H290.532ZM291.746 69.8924C292.55 70.5239 293.526 70.81 294.604 70.81V68.81C293.89 68.81 293.373 68.6268 292.982 68.3197L291.746 69.8924ZM294.604 70.81H295.5V68.81H294.604V70.81ZM295.5 70.81C298.205 70.81 300.097 71.4754 301.342 72.6496L302.714 71.1945C300.973 69.5527 298.513 68.81 295.5 68.81V70.81ZM301.353 72.6601C302.574 73.7764 303.268 75.5137 303.268 78.066H305.268C305.268 75.157 304.468 72.7983 302.703 71.184L301.353 72.6601ZM303.268 78.066V80.946H305.268V78.066H303.268ZM312.934 56.946V55.946H311.934V56.946H312.934ZM318.054 56.946H319.054V55.946H318.054V56.946ZM318.054 58.482H317.054V60.5209L318.667 59.2728L318.054 58.482ZM332.454 59.378L331.775 60.1115L331.784 60.1204L332.454 59.378ZM332.39 86.514L331.719 85.7725L331.711 85.7806L332.39 86.514ZM318.374 88.946V87.946H317.374V88.946H318.374ZM318.374 99.826V100.826H319.374V99.826H318.374ZM312.934 99.826H311.934V100.826H312.934V99.826ZM319.398 62.898L320.127 63.5834L320.136 63.573L320.146 63.5624L319.398 62.898ZM318.374 84.146H317.374V85.146H318.374V84.146ZM328.422 83.058L329.089 83.8033L328.422 83.058ZM328.422 62.834L329.089 62.0888L328.422 62.834ZM312.934 57.946H318.054V55.946H312.934V57.946ZM317.054 56.946V58.482H319.054V56.946H317.054ZM318.667 59.2728C319.774 58.4153 321.249 57.946 323.174 57.946V55.946C320.919 55.946 318.98 56.5007 317.442 57.6913L318.667 59.2728ZM323.174 57.946H324.198V55.946H323.174V57.946ZM324.198 57.946C327.84 57.946 330.292 58.7369 331.775 60.1115L333.134 58.6446C331.119 56.7765 328.067 55.946 324.198 55.946V57.946ZM331.784 60.1204C333.233 61.4274 334.078 63.6908 334.078 67.186H336.078C336.078 63.428 335.175 60.4861 333.124 58.6357L331.784 60.1204ZM334.078 67.186V78.706H336.078V67.186H334.078ZM334.078 78.706C334.078 82.1451 333.218 84.4168 331.72 85.7725L333.061 87.2556C335.147 85.3687 336.078 82.435 336.078 78.706H334.078ZM331.711 85.7806C330.226 87.1568 327.793 87.946 324.198 87.946V89.946C328.028 89.946 331.056 89.114 333.07 87.2475L331.711 85.7806ZM324.198 87.946H318.374V89.946H324.198V87.946ZM317.374 88.946V99.826H319.374V88.946H317.374ZM318.374 98.826H312.934V100.826H318.374V98.826ZM313.934 99.826V56.946H311.934V99.826H313.934ZM322.534 60.746C320.951 60.746 319.586 61.1817 318.651 62.2337L320.146 63.5624C320.576 63.0784 321.302 62.746 322.534 62.746V60.746ZM318.67 62.2127C317.844 63.0903 317.374 64.1158 317.374 65.266H319.374C319.374 64.7096 319.587 64.1564 320.127 63.5834L318.67 62.2127ZM317.374 65.266V84.146H319.374V65.266H317.374ZM318.374 85.146H324.838V83.146H318.374V85.146ZM324.838 85.146C326.554 85.146 328.027 84.7533 329.089 83.8033L327.756 82.3128C327.196 82.8134 326.28 83.146 324.838 83.146V85.146ZM329.089 83.8033C330.157 82.8479 330.638 81.5265 330.638 79.986H328.638C328.638 81.0909 328.309 81.8175 327.756 82.3128L329.089 83.8033ZM330.638 79.986V65.906H328.638V79.986H330.638ZM330.638 65.906C330.638 64.3655 330.157 63.0442 329.089 62.0888L327.756 63.5793C328.309 64.0746 328.638 64.8012 328.638 65.906H330.638ZM329.089 62.0888C328.027 61.1388 326.554 60.746 324.838 60.746V62.746C326.28 62.746 327.196 63.0786 327.756 63.5793L329.089 62.0888ZM324.838 60.746H322.534V62.746H324.838V60.746ZM361.708 88.434L361.238 89.3164L361.249 89.3226L361.261 89.3285L361.708 88.434ZM360.044 87.026L360.831 86.4082L360.035 85.3951L359.251 86.4176L360.044 87.026ZM344.62 87.026L343.947 87.765L343.958 87.7753L343.97 87.7853L344.62 87.026ZM358.444 69.106V70.106H359.444V69.106H358.444ZM357.228 62.834L357.895 62.0888L357.228 62.834ZM345.004 61.746H344.004V62.746H345.004V61.746ZM345.004 56.946V55.946H344.004V56.946H345.004ZM361.196 59.378L360.517 60.1115L360.526 60.1196L361.196 59.378ZM364.588 84.018L364 84.8268L364.041 84.8564L364.085 84.8818L364.588 84.018ZM367.084 84.466H368.084V83.466H367.084V84.466ZM367.084 88.946V89.946H368.084V88.946H367.084ZM357.932 83.25L357.064 82.7539L357.932 83.25ZM358.444 73.906H359.444V72.906H358.444V73.906ZM348.972 74.994L348.265 74.2869L348.972 74.994ZM348.652 83.378L347.945 84.0852L348.652 83.378ZM363.564 87.946C363.212 87.946 362.749 87.8362 362.156 87.5396L361.261 89.3285C362.033 89.7146 362.807 89.946 363.564 89.946V87.946ZM362.179 87.5517C361.667 87.2788 361.219 86.9017 360.831 86.4082L359.258 87.6439C359.809 88.3451 360.47 88.9067 361.238 89.3164L362.179 87.5517ZM359.251 86.4176C358.46 87.4493 357.453 87.946 356.14 87.946V89.946C358.071 89.946 359.666 89.1628 360.838 87.6345L359.251 86.4176ZM356.14 87.946H351.724V89.946H356.14V87.946ZM351.724 87.946C348.577 87.946 346.498 87.3182 345.271 86.2668L343.97 87.7853C345.73 89.2939 348.387 89.946 351.724 89.946V87.946ZM345.294 86.2871C344.149 85.2428 343.444 83.3488 343.444 80.306H341.444C341.444 83.578 342.191 86.164 343.947 87.765L345.294 86.2871ZM343.444 80.306V79.026H341.444V80.306H343.444ZM343.444 79.026C343.444 75.8591 344.191 73.6699 345.508 72.2717C346.815 70.8847 348.844 70.106 351.788 70.106V68.106C348.504 68.106 345.861 68.9807 344.053 70.9004C342.255 72.8088 341.444 75.5796 341.444 79.026H343.444ZM351.788 70.106H358.444V68.106H351.788V70.106ZM359.444 69.106V65.906H357.444V69.106H359.444ZM359.444 65.906C359.444 64.3655 358.963 63.0442 357.895 62.0888L356.562 63.5793C357.115 64.0746 357.444 64.8012 357.444 65.906H359.444ZM357.895 62.0888C356.833 61.1388 355.36 60.746 353.644 60.746V62.746C355.086 62.746 356.002 63.0786 356.562 63.5793L357.895 62.0888ZM353.644 60.746H345.004V62.746H353.644V60.746ZM346.004 61.746V56.946H344.004V61.746H346.004ZM345.004 57.946H353.004V55.946H345.004V57.946ZM353.004 57.946C356.599 57.946 359.032 58.7353 360.517 60.1115L361.876 58.6446C359.862 56.7781 356.834 55.946 353.004 55.946V57.946ZM360.526 60.1196C362.024 61.4753 362.884 63.747 362.884 67.186H364.884C364.884 63.4571 363.953 60.5234 361.867 58.6365L360.526 60.1196ZM362.884 67.186V82.546H364.884V67.186H362.884ZM362.884 82.546C362.884 83.4678 363.243 84.2759 364 84.8268L365.177 83.2093C364.995 83.0775 364.884 82.9043 364.884 82.546H362.884ZM364.085 84.8818C364.836 85.3202 365.894 85.466 367.084 85.466V83.466C365.971 83.466 365.365 83.3132 365.092 83.1543L364.085 84.8818ZM366.084 84.466V88.946H368.084V84.466H366.084ZM367.084 87.946H363.564V89.946H367.084V87.946ZM355.5 85.146C356.835 85.146 358.169 84.8509 358.801 83.7462L357.064 82.7539C357.013 82.8438 356.726 83.146 355.5 83.146V85.146ZM358.801 83.7462C359.254 82.9525 359.444 81.998 359.444 80.946H357.444C357.444 81.7714 357.293 82.3529 357.064 82.7539L358.801 83.7462ZM359.444 80.946V73.906H357.444V80.946H359.444ZM358.444 72.906H351.724V74.906H358.444V72.906ZM351.724 72.906C350.374 72.906 349.194 73.3579 348.265 74.2869L349.68 75.7012C350.201 75.1796 350.856 74.906 351.724 74.906V72.906ZM348.265 74.2869C347.336 75.216 346.884 76.3953 346.884 77.746H348.884C348.884 76.8781 349.158 76.2227 349.68 75.7011L348.265 74.2869ZM346.884 77.746V80.946H348.884V77.746H346.884ZM346.884 80.946C346.884 82.1823 347.167 83.3064 347.945 84.0852L349.36 82.6709C349.114 82.4257 348.884 81.9284 348.884 80.946H346.884ZM347.945 84.0852C348.724 84.8639 349.848 85.146 351.084 85.146V83.146C350.102 83.146 349.605 82.9162 349.36 82.6709L347.945 84.0852ZM351.084 85.146H355.5V83.146H351.084V85.146ZM376.731 86.578L376.051 87.3115L376.061 87.3204L376.731 86.578ZM376.731 59.378L376.06 58.6365L376.051 58.6446L376.731 59.378ZM391.963 56.946H392.963V55.946H391.963V56.946ZM391.963 61.746V62.746H392.963V61.746H391.963ZM380.763 62.834L381.43 63.5793L380.763 62.834ZM380.763 83.058L381.43 82.3128V82.3128L380.763 83.058ZM391.963 84.146H392.963V83.146H391.963V84.146ZM391.963 88.946V89.946H392.963V88.946H391.963ZM384.987 87.946C381.34 87.946 378.884 87.1742 377.401 85.8357L376.061 87.3204C378.076 89.1392 381.124 89.946 384.987 89.946V87.946ZM377.411 85.8446C375.952 84.4922 375.107 82.1984 375.107 78.706H373.107C373.107 82.467 374.012 85.4212 376.051 87.3115L377.411 85.8446ZM375.107 78.706V67.186H373.107V78.706H375.107ZM375.107 67.186C375.107 63.7406 375.949 61.4658 377.411 60.1115L376.051 58.6446C374.014 60.5329 373.107 63.4635 373.107 67.186H375.107ZM377.402 60.1196C378.933 58.7342 381.395 57.946 384.987 57.946V55.946C381.155 55.946 378.113 56.7792 376.06 58.6365L377.402 60.1196ZM384.987 57.946H391.963V55.946H384.987V57.946ZM390.963 56.946V61.746H392.963V56.946H390.963ZM391.963 60.746H384.347V62.746H391.963V60.746ZM384.347 60.746C382.632 60.746 381.158 61.1388 380.096 62.0888L381.43 63.5793C381.989 63.0786 382.905 62.746 384.347 62.746V60.746ZM380.096 62.0888C379.028 63.0442 378.547 64.3655 378.547 65.906H380.547C380.547 64.8012 380.876 64.0746 381.43 63.5793L380.096 62.0888ZM378.547 65.906V79.986H380.547V65.906H378.547ZM378.547 79.986C378.547 81.5265 379.028 82.8479 380.096 83.8033L381.43 82.3128C380.876 81.8175 380.547 81.0909 380.547 79.986H378.547ZM380.096 83.8033C381.158 84.7533 382.632 85.146 384.347 85.146V83.146C382.905 83.146 381.989 82.8134 381.43 82.3128L380.096 83.8033ZM384.347 85.146H391.963V83.146H384.347V85.146ZM390.963 84.146V88.946H392.963V84.146H390.963ZM391.963 87.946H384.987V89.946H391.963V87.946ZM401.668 86.578L400.989 87.3115L400.998 87.3204L401.668 86.578ZM401.412 59.314L400.705 58.6069L401.412 59.314ZM417.86 59.506L417.117 60.175L417.126 60.1848L417.135 60.1943L417.86 59.506ZM420.228 75.186V76.186H421.228V75.186H420.228ZM404.484 75.186V74.186H403.484V75.186H404.484ZM405.7 83.058L406.367 82.3128V82.3128L405.7 83.058ZM418.18 84.146H419.18V83.146H418.18V84.146ZM418.18 88.946V89.946H419.18V88.946H418.18ZM414.916 70.386V71.386H415.916V70.386H414.916ZM413.828 62.834L414.536 62.1269L413.828 62.834ZM405.38 62.834L404.631 62.1724L404.628 62.1755L405.38 62.834ZM404.484 70.386H403.484V71.386H404.484V70.386ZM409.924 87.946C406.278 87.946 403.822 87.1742 402.338 85.8357L400.998 87.3204C403.014 89.1392 406.062 89.946 409.924 89.946V87.946ZM402.348 85.8446C400.889 84.4922 400.044 82.1984 400.044 78.706H398.044C398.044 82.467 398.949 85.4212 400.989 87.3115L402.348 85.8446ZM400.044 78.706V67.186H398.044V78.706H400.044ZM400.044 67.186C400.044 63.6196 400.818 61.3223 402.12 60.0212L400.705 58.6069C398.849 60.4631 398.044 63.4139 398.044 67.186H400.044ZM402.12 60.0212C403.421 58.72 405.718 57.946 409.284 57.946V55.946C405.512 55.946 402.562 56.7508 400.705 58.6069L402.12 60.0212ZM409.284 57.946H411.012V55.946H409.284V57.946ZM411.012 57.946C413.854 57.946 415.826 58.7409 417.117 60.175L418.604 58.8371C416.822 56.8579 414.23 55.946 411.012 55.946V57.946ZM417.135 60.1943C418.476 61.6075 419.228 63.7732 419.228 66.866H421.228C421.228 63.4736 420.402 60.7325 418.586 58.8178L417.135 60.1943ZM419.228 66.866V75.186H421.228V66.866H419.228ZM420.228 74.186H404.484V76.186H420.228V74.186ZM403.484 75.186V79.986H405.484V75.186H403.484ZM403.484 79.986C403.484 81.5265 403.966 82.8479 405.034 83.8033L406.367 82.3128C405.814 81.8175 405.484 81.0909 405.484 79.986H403.484ZM405.034 83.8033C406.095 84.7533 407.569 85.146 409.284 85.146V83.146C407.842 83.146 406.927 82.8134 406.367 82.3128L405.034 83.8033ZM409.284 85.146H418.18V83.146H409.284V85.146ZM417.18 84.146V88.946H419.18V84.146H417.18ZM418.18 87.946H409.924V89.946H418.18V87.946ZM415.916 70.386V65.586H413.916V70.386H415.916ZM415.916 65.586C415.916 64.2353 415.465 63.056 414.536 62.1269L413.121 63.5412C413.643 64.0627 413.916 64.7181 413.916 65.586H415.916ZM414.536 62.1269C413.606 61.1979 412.427 60.746 411.076 60.746V62.746C411.944 62.746 412.6 63.0196 413.121 63.5412L414.536 62.1269ZM411.076 60.746H408.644V62.746H411.076V60.746ZM408.644 60.746C406.988 60.746 405.548 61.1328 404.631 62.1724L406.13 63.4957C406.493 63.0847 407.229 62.746 408.644 62.746V60.746ZM404.628 62.1755C403.807 63.1133 403.484 64.4169 403.484 65.906H405.484C405.484 64.6645 405.759 63.9201 406.133 63.4925L404.628 62.1755ZM403.484 65.906V70.386H405.484V65.906H403.484ZM404.484 71.386H414.916V69.386H404.484V71.386Z" fill="black" mask="url(#path-1-outside-1_0_1)"/>
<path d="M65.2678 99.1361L72.5858 82.0516C73.2858 80.4174 75.6105 80.4405 76.278 82.0882L83.256 99.3143C83.4697 99.8417 83.4486 100.435 83.198 100.946L78.496 110.532C78.399 110.73 78.3353 110.942 78.3076 111.161L75.9459 129.766C75.6471 132.12 72.2253 132.086 71.9732 129.726L69.9806 111.079C69.9572 110.859 69.8977 110.646 69.8046 110.446L65.2935 100.769C65.0531 100.253 65.0438 99.6591 65.2678 99.1361Z" fill="#000011" stroke="#FFFBF2" stroke-width="3"/>
<path d="M85.1127 98.0647L78.2068 80.8095C77.5462 79.159 79.2063 77.5315 80.8434 78.2247L97.9584 85.4712C98.4823 85.693 98.887 86.1275 99.0711 86.666L102.525 96.7692C102.596 96.9777 102.701 97.173 102.836 97.3472L114.322 112.173C115.775 114.049 113.332 116.444 111.485 114.954L96.8898 103.177C96.7183 103.039 96.5252 102.929 96.3181 102.854L86.2853 99.2009C85.7506 99.0062 85.3242 98.593 85.1127 98.0647Z" fill="#000011" stroke="#FFFBF2" stroke-width="3"/>
<path d="M99.1883 82.9766L82.1293 75.5992C80.4976 74.8935 80.5287 72.569 82.1788 71.9072L99.4291 64.9891C99.9572 64.7773 100.551 64.8005 101.061 65.0529L110.63 69.7882C110.828 69.8859 111.04 69.9503 111.259 69.9788L129.855 72.4052C132.208 72.7122 132.162 76.1339 129.802 76.3778L111.147 78.3054C110.928 78.3281 110.714 78.3868 110.514 78.4792L100.821 82.9566C100.304 83.1952 99.7105 83.2025 99.1883 82.9766Z" fill="#000011" stroke="#FFFBF2" stroke-width="3"/>
<path d="M98.1857 63.1276L80.9066 69.9735C79.2538 70.6283 77.6321 68.9626 78.331 67.3279L85.6369 50.2383C85.8606 49.7151 86.2966 49.3119 86.8356 49.1297L96.9509 45.7112C97.1596 45.6407 97.3552 45.5361 97.5299 45.4018L112.395 33.9679C114.276 32.521 116.663 34.9729 115.167 36.8145L103.339 51.3684C103.2 51.5394 103.09 51.7322 103.014 51.939L99.326 61.9591C99.1294 62.4931 98.7147 62.918 98.1857 63.1276Z" fill="#000011" stroke="#FFFBF2" stroke-width="3"/>
<path d="M82.5485 49.4152L75.1169 66.4505C74.406 68.08 72.0815 68.0415 71.4251 66.3894L64.5619 49.1171C64.3518 48.5883 64.3768 47.9951 64.6308 47.4859L69.3965 37.9312C69.4949 37.734 69.56 37.522 69.5892 37.3036L72.0747 18.715C72.3892 16.3628 75.8107 16.4195 76.0471 18.7808L77.9154 37.4416C77.9373 37.6608 77.9954 37.8749 78.0871 38.0752L82.5337 47.7826C82.7706 48.2999 82.776 48.8936 82.5485 49.4152Z" fill="#000011" stroke="#FFFBF2" stroke-width="3"/>
<path d="M62.7019 50.354L69.4927 67.6548C70.1423 69.3097 68.4714 70.9261 66.8389 70.2221L49.7726 62.8618C49.2502 62.6364 48.8484 62.1992 48.6679 61.6596L45.2816 51.5335C45.2117 51.3246 45.1078 51.1286 44.974 50.9535L33.5874 36.0519C32.1466 34.1662 34.606 31.7869 36.4429 33.2895L50.9591 45.1635C51.1297 45.303 51.3221 45.4134 51.5286 45.4902L61.5369 49.2101C62.0703 49.4084 62.494 49.8244 62.7019 50.354Z" fill="#000011" stroke="#FFFBF2" stroke-width="3"/>
<path d="M48.5229 65.3474L65.5323 72.8383C67.1593 73.5548 67.1127 75.8791 65.4583 76.5298L48.1623 83.3329C47.6327 83.5411 47.0396 83.514 46.5313 83.2583L36.9932 78.4593C36.7964 78.3603 36.5846 78.2945 36.3663 78.2645L17.7864 75.7143C15.4354 75.3916 15.504 71.9703 17.8661 71.7421L36.5332 69.9388C36.7525 69.9176 36.9669 69.8603 37.1675 69.7693L46.8903 65.3565C47.4084 65.1214 48.0022 65.118 48.5229 65.3474Z" fill="#000011" stroke="#FFFBF2" stroke-width="3"/>
<path d="M49.392 85.2003L66.7164 78.4697C68.3735 77.8259 69.9841 79.5024 69.2744 81.1323L61.8547 98.1729C61.6275 98.6946 61.1889 99.0949 60.6487 99.2735L50.5109 102.625C50.3017 102.694 50.1053 102.797 49.9298 102.93L34.9886 114.265C33.098 115.699 30.7273 113.231 32.2362 111.4L44.1607 96.9249C44.3008 96.7548 44.4118 96.5628 44.4893 96.3565L48.2441 86.3612C48.4442 85.8285 48.8617 85.4063 49.392 85.2003Z" fill="#000011" stroke="#FFFBF2" stroke-width="3"/>
<path d="M76.1619 93.1529L75.7848 80.5885C75.7292 78.7363 78.0045 77.811 79.2574 79.1762L87.7565 88.4376C88.1032 88.8154 88.2915 89.3119 88.2826 89.8247L88.1423 97.8757C88.1388 98.0758 88.1654 98.2754 88.2211 98.4676L90.692 106.988C91.3612 109.296 88.1381 110.607 87.0067 108.487L82.8294 100.66C82.7352 100.484 82.615 100.322 82.4728 100.181L76.7532 94.5135C76.3889 94.1525 76.1773 93.6655 76.1619 93.1529Z" fill="#000011" stroke="#FFFBF2" stroke-width="3"/>
<path d="M89.8798 86.5585L80.5883 77.0951C79.342 75.8258 80.2435 73.6829 82.0202 73.6918L95.2655 73.7578C95.8341 73.7606 96.3749 74.0058 96.7525 74.432L102.103 80.4715C102.249 80.6365 102.422 80.7763 102.613 80.8851L112.011 86.2208C114.076 87.3928 112.748 90.5469 110.471 89.8829L100.1 86.8595C99.8882 86.7979 99.668 86.7716 99.4481 86.7818L91.3993 87.1556C90.8313 87.1819 90.2787 86.9648 89.8798 86.5585Z" fill="#000011" stroke="#FFFBF2" stroke-width="3"/>
<path d="M96.3054 71.1659L83.0575 70.9982C81.2811 70.9758 80.4136 68.8212 81.6788 67.5741L91.1144 58.2734C91.5203 57.8733 92.0776 57.6654 92.6463 57.7019L100.686 58.2173C100.906 58.2314 101.127 58.209 101.34 58.151L111.769 55.307C114.058 54.6829 115.336 57.8563 113.253 58.9924L103.763 64.1688C103.569 64.2745 103.394 64.4114 103.245 64.5742L97.806 70.5165C97.4212 70.9369 96.8753 71.1731 96.3054 71.1659Z" fill="#000011" stroke="#FFFBF2" stroke-width="3"/>
<path d="M89.5214 56.6487L80.0494 65.9073C78.7789 67.1492 76.6408 66.2364 76.6536 64.4575L76.7491 51.1956C76.7532 50.6263 76.9993 50.0859 77.4258 49.7098L83.4694 44.381C83.6346 44.2354 83.7745 44.0634 83.8836 43.8721L89.2335 34.4871C90.4086 32.4259 93.5557 33.7695 92.8874 36.0471L89.8448 46.4172C89.7827 46.6286 89.756 46.8489 89.7657 47.0692L90.121 55.13C90.1461 55.6989 89.928 56.2512 89.5214 56.6487Z" fill="#000011" stroke="#FFFBF2" stroke-width="3"/>
<path d="M74.7164 53.1788L74.5235 66.4361C74.4976 68.2149 72.3363 69.0771 71.0931 67.8046L61.8274 58.3206C61.4304 57.9143 61.2249 57.3583 61.2623 56.7914L61.793 48.7386C61.8075 48.5191 61.7856 48.2986 61.7283 48.0862L58.916 37.6596C58.2978 35.3678 61.4771 34.0995 62.6062 36.1874L67.7434 45.6866C67.8481 45.8802 67.9839 46.0551 68.1455 46.2044L74.0737 51.6806C74.491 52.0661 74.7247 52.6108 74.7164 53.1788Z" fill="#000011" stroke="#FFFBF2" stroke-width="3"/>
<path d="M59.4 59.7812L68.6284 69.3063C69.8662 70.5839 68.9504 72.7207 67.1738 72.7L53.9292 72.5457C53.3606 72.5391 52.8215 72.2903 52.4467 71.8616L47.1364 65.7866C46.9913 65.6205 46.8198 65.4797 46.6289 65.3696L37.2666 59.9714C35.2103 58.7858 36.5584 55.6405 38.8317 56.3197L49.1822 59.4121C49.3933 59.4751 49.6133 59.5029 49.8333 59.4941L57.8845 59.1741C58.4526 59.1515 59.0038 59.3723 59.4 59.7812Z" fill="#000011" stroke="#FFFBF2" stroke-width="3"/>
<path d="M54.3489 74.5666L67.5955 74.8226C69.3718 74.8569 70.225 77.0172 68.9515 78.2559L59.4541 87.4933C59.0456 87.8907 58.4869 88.0949 57.9184 88.0546L49.8826 87.4856C49.6625 87.47 49.4414 87.4909 49.2281 87.5475L38.7797 90.3218C36.4865 90.9307 35.2299 87.7489 37.3204 86.6267L46.8451 81.5137C47.0396 81.4094 47.2154 81.2736 47.3654 81.1118L52.844 75.206C53.2316 74.7882 53.7791 74.5556 54.3489 74.5666Z" fill="#000011" stroke="#FFFBF2" stroke-width="3"/>
<path d="M62.1471 88.589L71.6806 79.3937C72.9594 78.1604 75.0913 79.0874 75.0666 80.8661L74.8829 94.1271C74.8751 94.6964 74.6253 95.2351 74.1963 95.6083L68.1174 100.897C67.9512 101.041 67.8101 101.212 67.6998 101.403L62.2874 110.752C61.0987 112.805 57.9606 111.441 58.644 109.168L61.7556 98.8181C61.8191 98.607 61.8472 98.3869 61.839 98.1665L61.5373 90.1036C61.516 89.5346 61.7378 88.9837 62.1471 88.589Z" fill="#000011" stroke="#FFFBF2" stroke-width="3"/>
<ellipse cx="9.33848" cy="9.33849" rx="9.33848" ry="9.33849" transform="matrix(-0.00105855 -0.999999 -0.999999 0.00105855 84.4199 83.1025)" fill="#000011" stroke="#FFFBF2" stroke-width="3"/>
</svg>
