<svg width="148" height="147" viewBox="0 0 148 147" fill="none" xmlns="http://www.w3.org/2000/svg">
<path d="M65.2717 98.19L72.5897 81.1055C73.2897 79.4714 75.6144 79.4944 76.2819 81.1421L83.2599 98.3683C83.4736 98.8956 83.4525 99.489 83.2019 99.9999L78.4999 109.586C78.4029 109.784 78.3392 109.996 78.3115 110.215L75.9498 128.82C75.651 131.174 72.2292 131.14 71.9771 128.78L69.9845 110.133C69.9611 109.913 69.9016 109.7 69.8086 109.5L65.2974 99.8225C65.057 99.3068 65.0477 98.7131 65.2717 98.19Z" fill="#000011" stroke="#FFFBF2" stroke-width="3"/>
<path d="M85.1166 97.1187L78.2107 79.8635C77.5501 78.213 79.2102 76.5855 80.8473 77.2786L97.9623 84.5251C98.4862 84.747 98.8909 85.1815 99.075 85.7199L102.529 95.8232C102.6 96.0317 102.705 96.227 102.84 96.4011L114.326 111.227C115.779 113.103 113.336 115.498 111.489 114.008L96.8937 102.231C96.7222 102.092 96.5291 101.983 96.322 101.908L86.2892 98.2548C85.7545 98.0602 85.3281 97.647 85.1166 97.1187Z" fill="#000011" stroke="#FFFBF2" stroke-width="3"/>
<path d="M99.1922 82.0306L82.1332 74.6532C80.5015 73.9475 80.5326 71.6229 82.1827 70.9612L99.433 64.0431C99.9611 63.8313 100.554 63.8545 101.064 64.1068L110.634 68.8421C110.832 68.9399 111.044 69.0043 111.262 69.0328L129.859 71.4592C132.212 71.7662 132.166 75.1878 129.806 75.4318L111.151 77.3594C110.932 77.382 110.718 77.4408 110.518 77.5331L100.825 82.0106C100.308 82.2492 99.7144 82.2564 99.1922 82.0306Z" fill="#000011" stroke="#FFFBF2" stroke-width="3"/>
<path d="M98.1896 62.1816L80.9105 69.0274C79.2577 69.6822 77.636 68.0165 78.3349 66.3818L85.6408 49.2922C85.8645 48.769 86.3005 48.3659 86.8395 48.1837L96.9548 44.7652C97.1635 44.6946 97.3591 44.5901 97.5338 44.4557L112.399 33.0218C114.28 31.575 116.667 34.0268 115.171 35.8685L103.343 50.4224C103.204 50.5934 103.094 50.7861 103.018 50.9929L99.3299 61.013C99.1333 61.547 98.7186 61.972 98.1896 62.1816Z" fill="#000011" stroke="#FFFBF2" stroke-width="3"/>
<path d="M82.5524 48.4691L75.1208 65.5045C74.4099 67.134 72.0854 67.0955 71.429 65.4433L64.5658 48.1711C64.3557 47.6423 64.3807 47.049 64.6347 46.5399L69.4004 36.9852C69.4988 36.788 69.5639 36.5759 69.5931 36.3575L72.0786 17.7689C72.3931 15.4167 75.8146 15.4734 76.051 17.8348L77.9193 36.4955C77.9413 36.7148 77.9993 36.9289 78.091 37.1292L82.5376 46.8365C82.7746 47.3538 82.7799 47.9476 82.5524 48.4691Z" fill="#000011" stroke="#FFFBF2" stroke-width="3"/>
<path d="M62.7058 49.408L69.4966 66.7088C70.1462 68.3637 68.4753 69.9801 66.8429 69.276L49.7765 61.9157C49.2541 61.6904 48.8523 61.2532 48.6718 60.7135L45.2855 50.5875C45.2156 50.3785 45.1117 50.1825 44.9779 50.0075L33.5913 35.1058C32.1505 33.2202 34.6099 30.8409 36.4468 32.3434L50.963 44.2175C51.1336 44.357 51.326 44.4674 51.5325 44.5441L61.5408 48.2641C62.0742 48.4623 62.4979 48.8783 62.7058 49.408Z" fill="#000011" stroke="#FFFBF2" stroke-width="3"/>
<path d="M48.5268 64.4013L65.5362 71.8922C67.1632 72.6088 67.1166 74.9331 65.4622 75.5838L48.1662 82.3868C47.6367 82.5951 47.0435 82.568 46.5352 82.3122L36.9971 77.5133C36.8003 77.4142 36.5885 77.3484 36.3702 77.3185L17.7904 74.7683C15.4393 74.4456 15.5079 71.0243 17.87 70.7961L36.5371 68.9928C36.7565 68.9716 36.9708 68.9143 37.1714 68.8232L46.8942 64.4105C47.4123 64.1753 48.0061 64.172 48.5268 64.4013Z" fill="#000011" stroke="#FFFBF2" stroke-width="3"/>
<path d="M49.396 84.2542L66.7203 77.5236C68.3774 76.8798 69.988 78.5563 69.2783 80.1863L61.8586 97.2269C61.6315 97.7486 61.1928 98.1488 60.6526 98.3274L50.5148 101.678C50.3056 101.748 50.1092 101.851 49.9337 101.984L34.9925 113.319C33.1019 114.753 30.7312 112.285 32.2401 110.454L44.1646 95.9788C44.3047 95.8088 44.4157 95.6167 44.4932 95.4105L48.248 85.4151C48.4481 84.8825 48.8656 84.4603 49.396 84.2542Z" fill="#000011" stroke="#FFFBF2" stroke-width="3"/>
<path d="M76.1658 92.2068L75.7887 79.6424C75.7331 77.7903 78.0085 76.8649 79.2613 78.2302L87.7604 87.4915C88.1071 87.8693 88.2954 88.3659 88.2865 88.8786L88.1462 96.9297C88.1427 97.1298 88.1693 97.3293 88.225 97.5215L90.6959 106.042C91.3651 108.35 88.142 109.661 87.0106 107.541L82.8333 99.7143C82.7391 99.5377 82.6189 99.3763 82.4767 99.2354L76.7571 93.5674C76.3929 93.2065 76.1812 92.7194 76.1658 92.2068Z" fill="#000011" stroke="#FFFBF2" stroke-width="3"/>
<path d="M89.8837 85.6125L80.5922 76.1491C79.3459 74.8797 80.2474 72.7369 82.0241 72.7457L95.2694 72.8117C95.838 72.8145 96.3788 73.0598 96.7564 73.486L102.107 79.5254C102.253 79.6905 102.426 79.8302 102.617 79.939L112.015 85.2748C114.079 86.4467 112.752 89.6009 110.475 88.9368L100.104 85.9135C99.8921 85.8518 99.6719 85.8256 99.452 85.8358L91.4032 86.2095C90.8352 86.2359 90.2826 86.0188 89.8837 85.6125Z" fill="#000011" stroke="#FFFBF2" stroke-width="3"/>
<path d="M96.3093 70.2199L83.0614 70.0522C81.285 70.0297 80.4175 67.8751 81.6827 66.628L91.1183 57.3273C91.5242 56.9273 92.0815 56.7193 92.6502 56.7558L100.69 57.2713C100.91 57.2854 101.131 57.263 101.344 57.2049L111.773 54.361C114.062 53.7368 115.34 56.9102 113.257 58.0463L103.767 63.2227C103.573 63.3284 103.398 63.4654 103.249 63.6282L97.8099 69.5704C97.4251 69.9908 96.8792 70.2271 96.3093 70.2199Z" fill="#000011" stroke="#FFFBF2" stroke-width="3"/>
<path d="M89.5253 55.7027L80.0533 64.9613C78.7828 66.2032 76.6447 65.2903 76.6575 63.5115L76.753 50.2496C76.7571 49.6802 77.0032 49.1399 77.4297 48.7638L83.4733 43.435C83.6385 43.2894 83.7784 43.1174 83.8875 42.926L89.2374 33.5411C90.4125 31.4798 93.5596 32.8235 92.8913 35.1011L89.8487 45.4711C89.7866 45.6826 89.7599 45.9029 89.7696 46.1232L90.1249 54.184C90.15 54.7528 89.9319 55.3052 89.5253 55.7027Z" fill="#000011" stroke="#FFFBF2" stroke-width="3"/>
<path d="M74.7203 52.2328L74.5274 65.4901C74.5015 67.2688 72.3402 68.131 71.097 66.8585L61.8313 57.3746C61.4343 56.9682 61.2288 56.4122 61.2662 55.8454L61.7969 47.7925C61.8114 47.573 61.7895 47.3526 61.7322 47.1402L58.9199 36.7135C58.3017 34.4218 61.481 33.1535 62.6101 35.2414L67.7473 44.7406C67.852 44.9341 67.9878 45.109 68.1494 45.2583L74.0777 50.7345C74.4949 51.12 74.7286 51.6647 74.7203 52.2328Z" fill="#000011" stroke="#FFFBF2" stroke-width="3"/>
<path d="M59.4039 58.8352L68.6323 68.3602C69.8701 69.6379 68.9543 71.7747 67.1777 71.754L53.9331 71.5997C53.3645 71.593 52.8254 71.3442 52.4506 70.9155L47.1403 64.8405C46.9952 64.6745 46.8237 64.5336 46.6328 64.4235L37.2706 59.0254C35.2143 57.8397 36.5623 54.6945 38.8356 55.3737L49.1862 58.466C49.3972 58.5291 49.6172 58.5568 49.8372 58.5481L57.8884 58.228C58.4565 58.2054 59.0077 58.4262 59.4039 58.8352Z" fill="#000011" stroke="#FFFBF2" stroke-width="3"/>
<path d="M54.3528 73.6205L67.5994 73.8766C69.3757 73.9109 70.2289 76.0712 68.9554 77.3098L59.458 86.5473C59.0495 86.9447 58.4908 87.1489 57.9223 87.1086L49.8866 86.5395C49.6664 86.5239 49.4453 86.5449 49.232 86.6015L38.7836 89.3758C36.4904 89.9847 35.2338 86.8028 37.3243 85.6807L46.849 80.5677C47.0435 80.4633 47.2193 80.3275 47.3693 80.1657L52.8479 74.26C53.2355 73.8421 53.783 73.6095 54.3528 73.6205Z" fill="#000011" stroke="#FFFBF2" stroke-width="3"/>
<path d="M62.151 87.6429L71.6845 78.4477C72.9633 77.2143 75.0952 78.1414 75.0705 79.9201L74.8868 93.181C74.879 93.7503 74.6292 94.2891 74.2002 94.6623L68.1213 99.9506C67.9551 100.095 67.814 100.266 67.7037 100.457L62.2913 109.806C61.1026 111.859 57.9645 110.495 58.6479 108.222L61.7595 97.872C61.823 97.661 61.8512 97.4408 61.8429 97.2205L61.5412 89.1576C61.52 88.5886 61.7417 88.0377 62.151 87.6429Z" fill="#000011" stroke="#FFFBF2" stroke-width="3"/>
<ellipse cx="9.33848" cy="9.33849" rx="9.33848" ry="9.33849" transform="matrix(-0.00105855 -0.999999 -0.999999 0.00105855 84.4238 82.1565)" fill="#000011" stroke="#FFFBF2" stroke-width="3"/>
</svg>
