<svg width="139" height="138" viewBox="0 0 139 138" fill="none" xmlns="http://www.w3.org/2000/svg">
<path d="M61.1974 92.0535L68.058 76.0368C68.7143 74.5047 70.8936 74.5263 71.5194 76.071L78.0613 92.2206C78.2616 92.715 78.2418 93.2713 78.0069 93.7502L73.5988 102.737C73.5078 102.923 73.4481 103.122 73.4221 103.327L71.2081 120.769C70.9279 122.976 67.72 122.944 67.4836 120.732L65.6156 103.25C65.5937 103.044 65.5379 102.844 65.4506 102.657L61.2215 93.5839C60.9961 93.1004 60.9873 92.5438 61.1974 92.0535Z" fill="#FFFBF2" stroke="#000011" stroke-width="2.8125"/>
<path d="M79.8015 91.0494L73.3272 74.8726C72.7079 73.3253 74.2642 71.7995 75.799 72.4493L91.8443 79.2429C92.3355 79.4509 92.7149 79.8583 92.8874 80.363L96.1253 89.8349C96.1921 90.0303 96.2907 90.2134 96.4172 90.3767L107.185 104.276C108.548 106.034 106.257 108.28 104.525 106.883L90.8425 95.842C90.6817 95.7123 90.5006 95.6101 90.3066 95.5394L80.9007 92.1145C80.3995 91.932 79.9997 91.5446 79.8015 91.0494Z" fill="#FFFBF2" stroke="#000011" stroke-width="2.8125"/>
<path d="M92.9955 76.9041L77.0027 69.9878C75.473 69.3262 75.5022 67.1469 77.0491 66.5265L93.2212 60.0408C93.7164 59.8423 94.2726 59.864 94.7507 60.1006L103.722 64.5399C103.908 64.6315 104.107 64.6919 104.311 64.7186L121.746 66.9934C123.952 67.2812 123.909 70.489 121.696 70.7177L104.207 72.5249C104.001 72.5461 103.801 72.6011 103.613 72.6877L94.526 76.8853C94.0417 77.109 93.4851 77.1158 92.9955 76.9041Z" fill="#FFFBF2" stroke="#000011" stroke-width="2.8125"/>
<path d="M92.0552 58.2952L75.8561 64.7132C74.3066 65.3271 72.7862 63.7654 73.4414 62.233L80.2907 46.2114C80.5004 45.7209 80.9091 45.343 81.4145 45.1722L90.8975 41.9673C91.0932 41.9012 91.2766 41.8032 91.4404 41.6772L105.377 30.9579C107.14 29.6015 109.378 31.9001 107.975 33.6267L96.8863 47.271C96.756 47.4313 96.6531 47.612 96.5818 47.8058L93.1242 57.1997C92.9399 57.7003 92.5512 58.0987 92.0552 58.2952Z" fill="#FFFBF2" stroke="#000011" stroke-width="2.8125"/>
<path d="M77.3966 45.44L70.4294 61.4106C69.7629 62.9383 67.5838 62.9022 66.9683 61.3533L60.5341 45.1606C60.3371 44.6648 60.3606 44.1086 60.5987 43.6313L65.0666 34.6738C65.1588 34.4889 65.2198 34.2901 65.2472 34.0854L67.5774 16.6585C67.8722 14.4534 71.0798 14.5065 71.3015 16.7203L73.053 34.2147C73.0736 34.4202 73.128 34.621 73.214 34.8088L77.3827 43.9094C77.6048 44.3944 77.6099 44.951 77.3966 45.44Z" fill="#FFFBF2" stroke="#000011" stroke-width="2.8125"/>
<path d="M58.7891 46.3204L65.1555 62.5399C65.7645 64.0914 64.198 65.6067 62.6676 64.9467L46.6679 58.0464C46.1781 57.8352 45.8015 57.4253 45.6323 56.9194L42.4576 47.4262C42.3921 47.2303 42.2947 47.0466 42.1693 46.8824L31.4943 32.9121C30.1435 31.1443 32.4492 28.9138 34.1713 30.3224L47.7803 41.4543C47.9402 41.5851 48.1206 41.6886 48.3142 41.7605L57.697 45.248C58.197 45.4338 58.5942 45.8239 58.7891 46.3204Z" fill="#FFFBF2" stroke="#000011" stroke-width="2.8125"/>
<path d="M45.4935 60.3767L61.4398 67.3994C62.9651 68.0712 62.9214 70.2502 61.3704 70.8603L45.1554 77.2381C44.659 77.4334 44.1029 77.4079 43.6264 77.1682L34.6845 72.6691C34.4999 72.5763 34.3013 72.5146 34.0967 72.4865L16.6781 70.0957C14.4739 69.7932 14.5383 66.5857 16.7528 66.3718L34.2532 64.6812C34.4588 64.6613 34.6597 64.6076 34.8478 64.5222L43.9629 60.3853C44.4487 60.1648 45.0053 60.1617 45.4935 60.3767Z" fill="#FFFBF2" stroke="#000011" stroke-width="2.8125"/>
<path d="M46.3097 78.9885L62.5512 72.6785C64.1048 72.075 65.6147 73.6467 64.9494 75.1748L57.9934 91.1503C57.7805 91.6394 57.3693 92.0147 56.8628 92.1821L47.3586 95.3237C47.1625 95.3885 46.9784 95.4853 46.8138 95.6102L32.8065 106.236C31.034 107.581 28.8115 105.268 30.2261 103.55L41.4053 89.9803C41.5366 89.8208 41.6407 89.6408 41.7134 89.4474L45.2334 80.0768C45.421 79.5775 45.8124 79.1816 46.3097 78.9885Z" fill="#FFFBF2" stroke="#000011" stroke-width="2.8125"/>
<path d="M71.4079 86.4442L71.0543 74.6651C71.0022 72.9287 73.1354 72.0612 74.3099 73.3411L82.2778 82.0236C82.6028 82.3778 82.7794 82.8434 82.7711 83.324L82.6395 90.8719C82.6363 91.0595 82.6612 91.2466 82.7134 91.4268L85.0298 99.4148C85.6572 101.578 82.6355 102.807 81.5749 100.82L77.6587 93.4825C77.5703 93.3169 77.4576 93.1656 77.3243 93.0335L71.9622 87.7198C71.6207 87.3814 71.4223 86.9248 71.4079 86.4442Z" fill="#FFFBF2" stroke="#000011" stroke-width="2.8125"/>
<path d="M84.2646 80.2619L75.5538 71.3899C74.3854 70.1999 75.2306 68.191 76.8962 68.1993L89.3137 68.2611C89.8468 68.2638 90.3538 68.4937 90.7078 68.8933L95.7239 74.5553C95.861 74.71 96.0226 74.841 96.2023 74.943L105.013 79.9453C106.948 81.044 105.704 84.001 103.569 83.3784L93.8458 80.5441C93.6475 80.4863 93.4411 80.4617 93.2349 80.4712L85.6892 80.8216C85.1567 80.8463 84.6386 80.6428 84.2646 80.2619Z" fill="#FFFBF2" stroke="#000011" stroke-width="2.8125"/>
<path d="M90.2925 65.8314L77.8725 65.6743C76.2071 65.6532 75.3938 63.6333 76.58 62.4641L85.4258 53.7447C85.8064 53.3696 86.3288 53.1747 86.8621 53.2089L94.3989 53.6921C94.6053 53.7054 94.8125 53.6844 95.0121 53.6299L104.79 50.9637C106.936 50.3786 108.134 53.3536 106.181 54.4187L97.2837 59.2716C97.1021 59.3707 96.9381 59.4991 96.7985 59.6517L91.6993 65.2226C91.3385 65.6167 90.8267 65.8382 90.2925 65.8314Z" fill="#FFFBF2" stroke="#000011" stroke-width="2.8125"/>
<path d="M83.9342 52.2217L75.0542 60.9017C73.8631 62.0659 71.8587 61.2102 71.8707 59.5425L71.9602 47.1094C71.964 46.5757 72.1948 46.0691 72.5946 45.7165L78.2605 40.7208C78.4154 40.5842 78.5466 40.423 78.6488 40.2436L83.6644 31.4452C84.766 29.5128 87.7164 30.7725 87.0899 32.9077L84.2374 42.6296C84.1792 42.8279 84.1542 43.0344 84.1633 43.2409L84.4964 50.7979C84.5199 51.3312 84.3155 51.849 83.9342 52.2217Z" fill="#FFFBF2" stroke="#000011" stroke-width="2.8125"/>
<path d="M70.0523 48.9686L69.8714 61.3973C69.8471 63.0649 67.8209 63.8732 66.6554 62.6803L57.9688 53.789C57.5966 53.4081 57.404 52.8869 57.439 52.3554L57.9365 44.8059C57.9501 44.6001 57.9296 44.3935 57.8759 44.1943L55.2393 34.4193C54.6598 32.2708 57.6404 31.0818 58.6989 33.0392L63.5151 41.9447C63.6132 42.1261 63.7406 42.2901 63.8921 42.4301L69.4498 47.564C69.841 47.9254 70.06 48.4361 70.0523 48.9686Z" fill="#FFFBF2" stroke="#000011" stroke-width="2.8125"/>
<path d="M55.6893 55.1582L64.3409 64.088C65.5014 65.2858 64.6428 67.2891 62.9773 67.2696L50.5605 67.125C50.0274 67.1187 49.522 66.8855 49.1706 66.4836L44.1922 60.7883C44.0562 60.6326 43.8954 60.5005 43.7164 60.3974L34.9393 55.3366C33.0115 54.225 34.2753 51.2763 36.4066 51.9131L46.1102 54.8122C46.3081 54.8713 46.5143 54.8973 46.7205 54.8891L54.2685 54.5891C54.8012 54.5679 55.3179 54.7749 55.6893 55.1582Z" fill="#FFFBF2" stroke="#000011" stroke-width="2.8125"/>
<path d="M50.9559 69.0195L63.3746 69.2595C65.0398 69.2917 65.8397 71.317 64.6458 72.4782L55.742 81.1383C55.359 81.5109 54.8353 81.7023 54.3023 81.6646L46.7688 81.1311C46.5624 81.1164 46.3551 81.1361 46.1551 81.1892L36.3598 83.7901C34.2099 84.3609 33.0318 81.3779 34.9916 80.3259L43.9211 75.5325C44.1034 75.4346 44.2682 75.3073 44.4089 75.1556L49.5451 69.619C49.9084 69.2273 50.4217 69.0092 50.9559 69.0195Z" fill="#FFFBF2" stroke="#000011" stroke-width="2.8125"/>
<path d="M58.2709 82.1656L67.2085 73.5451C68.4073 72.3888 70.406 73.2579 70.3829 74.9254L70.2107 87.3575C70.2033 87.8913 69.9692 88.3963 69.567 88.7462L63.868 93.704C63.7122 93.8395 63.5799 93.9999 63.4765 94.1786L58.4024 102.943C57.2879 104.868 54.346 103.589 54.9867 101.458L57.9038 91.7554C57.9633 91.5575 57.9897 91.3511 57.982 91.1445L57.6992 83.5856C57.6792 83.0521 57.8871 82.5357 58.2709 82.1656Z" fill="#FFFBF2" stroke="#000011" stroke-width="2.8125"/>
<ellipse cx="8.75483" cy="8.75483" rx="8.75483" ry="8.75483" transform="matrix(-0.00105855 -0.999999 -0.999999 0.00105855 79.1484 77.0219)" fill="#FFFBF2" stroke="#000011" stroke-width="2.8125"/>
</svg>
