<svg width="105" height="106" viewBox="0 0 105 106" fill="none" xmlns="http://www.w3.org/2000/svg">
<circle cx="52.5" cy="53" r="50" stroke="#FFFBF2" stroke-width="5"/>
<circle cx="52.5" cy="53" r="10" stroke="#FFFBF2" stroke-width="5"/>
<line x1="53.5" y1="63" x2="53.5" y2="103" stroke="#FFFBF2" stroke-width="5"/>
<line x1="53.5" y1="3" x2="53.5" y2="43" stroke="#FFFBF2" stroke-width="5"/>
<line x1="16.7322" y1="88.5164" x2="45.0165" y2="60.2321" stroke="#FFFBF2" stroke-width="5"/>
<line x1="59.66" y1="46.16" x2="87.9442" y2="17.8757" stroke="#FFFBF2" stroke-width="5"/>
<line x1="60.2678" y1="60.2322" x2="88.552" y2="88.5165" stroke="#FFFBF2" stroke-width="5"/>
<line x1="17.2678" y1="17.2322" x2="45.552" y2="45.5165" stroke="#FFFBF2" stroke-width="5"/>
<line x1="102.5" y1="52" x2="62.5" y2="52" stroke="#FFFBF2" stroke-width="5"/>
<line x1="42.5" y1="52" x2="2.5" y2="52" stroke="#FFFBF2" stroke-width="5"/>
<circle cx="52.5" cy="53" r="50" stroke="#FFFBF2" stroke-width="5"/>
<circle cx="52.5" cy="53" r="10" stroke="#FFFBF2" stroke-width="5"/>
<line x1="53.5" y1="63" x2="53.5" y2="103" stroke="#FFFBF2" stroke-width="5"/>
<line x1="53.5" y1="3" x2="53.5" y2="43" stroke="#FFFBF2" stroke-width="5"/>
<line x1="16.7322" y1="88.5164" x2="45.0165" y2="60.2321" stroke="#FFFBF2" stroke-width="5"/>
<line x1="59.66" y1="46.16" x2="87.9442" y2="17.8757" stroke="#FFFBF2" stroke-width="5"/>
<line x1="60.2678" y1="60.2322" x2="88.552" y2="88.5165" stroke="#FFFBF2" stroke-width="5"/>
<line x1="17.2678" y1="17.2322" x2="45.552" y2="45.5165" stroke="#FFFBF2" stroke-width="5"/>
<line x1="102.5" y1="52" x2="62.5" y2="52" stroke="#FFFBF2" stroke-width="5"/>
<line x1="42.5" y1="52" x2="2.5" y2="52" stroke="#FFFBF2" stroke-width="5"/>
<circle cx="52.5" cy="53" r="50" stroke="#FFFBF2" stroke-width="5"/>
<circle cx="52.5" cy="53" r="10" stroke="#FFFBF2" stroke-width="5"/>
<line x1="53.5" y1="63" x2="53.5" y2="103" stroke="#FFFBF2" stroke-width="5"/>
<line x1="53.5" y1="3" x2="53.5" y2="43" stroke="#FFFBF2" stroke-width="5"/>
<line x1="16.7322" y1="88.5164" x2="45.0165" y2="60.2321" stroke="#FFFBF2" stroke-width="5"/>
<line x1="59.66" y1="46.16" x2="87.9442" y2="17.8757" stroke="#FFFBF2" stroke-width="5"/>
<line x1="60.2678" y1="60.2322" x2="88.552" y2="88.5165" stroke="#FFFBF2" stroke-width="5"/>
<line x1="17.2678" y1="17.2322" x2="45.552" y2="45.5165" stroke="#FFFBF2" stroke-width="5"/>
<line x1="102.5" y1="52" x2="62.5" y2="52" stroke="#FFFBF2" stroke-width="5"/>
<line x1="42.5" y1="52" x2="2.5" y2="52" stroke="#FFFBF2" stroke-width="5"/>
<circle cx="52.5" cy="53" r="50" stroke="#FFFBF2" stroke-width="5"/>
<circle cx="52.5" cy="53" r="10" stroke="#FFFBF2" stroke-width="5"/>
<line x1="53.5" y1="63" x2="53.5" y2="103" stroke="#FFFBF2" stroke-width="5"/>
<line x1="53.5" y1="3" x2="53.5" y2="43" stroke="#FFFBF2" stroke-width="5"/>
<line x1="16.7322" y1="88.5164" x2="45.0165" y2="60.2321" stroke="#FFFBF2" stroke-width="5"/>
<line x1="59.66" y1="46.16" x2="87.9442" y2="17.8757" stroke="#FFFBF2" stroke-width="5"/>
<line x1="60.2678" y1="60.2322" x2="88.552" y2="88.5165" stroke="#FFFBF2" stroke-width="5"/>
<line x1="17.2678" y1="17.2322" x2="45.552" y2="45.5165" stroke="#FFFBF2" stroke-width="5"/>
<line x1="102.5" y1="52" x2="62.5" y2="52" stroke="#FFFBF2" stroke-width="5"/>
<line x1="42.5" y1="52" x2="2.5" y2="52" stroke="#FFFBF2" stroke-width="5"/>
<circle cx="52.5" cy="53" r="50" stroke="#FFFBF2" stroke-width="5"/>
<circle cx="52.5" cy="53" r="10" stroke="#FFFBF2" stroke-width="5"/>
<line x1="53.5" y1="3" x2="53.5" y2="43" stroke="#FFFBF2" stroke-width="5"/>
<line x1="59.66" y1="46.16" x2="87.9442" y2="17.8757" stroke="#FFFBF2" stroke-width="5"/>
<line x1="17.2678" y1="17.2322" x2="45.552" y2="45.5165" stroke="#FFFBF2" stroke-width="5"/>
<circle cx="52.5" cy="53" r="50" stroke="#FFFBF2" stroke-width="5"/>
<circle cx="52.5" cy="53" r="10" stroke="#FFFBF2" stroke-width="5"/>
<line x1="53.5" y1="3" x2="53.5" y2="43" stroke="#FFFBF2" stroke-width="5"/>
<line x1="59.66" y1="46.16" x2="87.9442" y2="17.8757" stroke="#FFFBF2" stroke-width="5"/>
<line x1="17.2678" y1="17.2322" x2="45.552" y2="45.5165" stroke="#FFFBF2" stroke-width="5"/>
<circle cx="52.5" cy="53" r="50" stroke="#FFFBF2" stroke-width="5"/>
<circle cx="52.5" cy="53" r="10" stroke="#FFFBF2" stroke-width="5"/>
<line x1="53.5" y1="3" x2="53.5" y2="43" stroke="#FFFBF2" stroke-width="5"/>
<line x1="59.66" y1="46.16" x2="87.9442" y2="17.8757" stroke="#FFFBF2" stroke-width="5"/>
<line x1="17.2678" y1="17.2322" x2="45.552" y2="45.5165" stroke="#FFFBF2" stroke-width="5"/>
<circle cx="52.5" cy="53" r="50" stroke="#FFFBF2" stroke-width="5"/>
<circle cx="52.5" cy="53" r="10" stroke="#FFFBF2" stroke-width="5"/>
<line x1="53.5" y1="3" x2="53.5" y2="43" stroke="#FFFBF2" stroke-width="5"/>
<line x1="59.66" y1="46.16" x2="87.9442" y2="17.8757" stroke="#FFFBF2" stroke-width="5"/>
<line x1="17.2678" y1="17.2322" x2="45.552" y2="45.5165" stroke="#FFFBF2" stroke-width="5"/>
</svg>
